<?xml version="1.0" encoding="utf-8"?>
<!-- Generator: Adobe Illustrator 24.1.2, SVG Export Plug-In . SVG Version: 6.00 Build 0)  -->
<svg version="1.1" id="logo_1_" xmlns="http://www.w3.org/2000/svg" xmlns:xlink="http://www.w3.org/1999/xlink" x="0px" y="0px"
	 viewBox="0 0 325.5 315" style="enable-background:new 0 0 325.5 315;" xml:space="preserve">
<g id="logo">
	<g id="dark">
		<path d="M135.8,195.8c-1.8-17.3-7.3-33.6-7.3-33.6c-10.3-17.4-28-28.5-36.6-33.1c20.5,12.2,33.9,44.6,33.9,44.6l-1,0.9
			C108,147.3,72,140.9,72,140.9c45,23.1,52.5,53.2,53.6,66.4c-38.9-14.2-66.7-51.7-66.7-95.8c0-56.3,45.6-103.8,101.3-103.8
			c22.8,0,44.5,5,63.2,18.3c25.8,18.3,45,49.7,46.2,81.3l1.2-0.1c-1.9-34.6-19.3-64.7-43.3-84.1c-18-14.5-38.8-23-65.3-23
			C98.1,0,46,50.2,46,113.8c0,55.7,39.9,102.1,92.9,112.8C138.9,226.6,135.9,196.8,135.8,195.8z"/>
		<path d="M278.5,112.7h-17.6c-0.5,45-30,83-70.5,95.9c3.3-13.5,17.6-59.2,65.4-75.9c0,0-58.6,10-72.1,77.8c-0.5,0.1-3.5,17-3.5,17
			c55.6-8.6,98.2-56.2,98.2-113.7C278.5,113.4,278.5,113,278.5,112.7z"/>
		<path d="M155.9,228.7h5.6c0,0,3-39.7,4.7-51.2c1.6-10.1,14.8-36.4,14.8-36.4s25-49.3,25.6-51.4s-12.8,18.2-17.6,25.1
			c-9.8,14.2-18.7,33-22.9,41.4c-3.4,6.8-0.4-12.1,2.7-34.2s18.6-59.6,18.6-59.6s10.2-26.4,13.3-28.8c0,0,0.2-3.1-1.7,0
			c-1.9,3.1-30.3,50.3-35.7,76.9c-5.3,26.6-5.8,24.9-7.2,24.7c-1.4-0.2-2.4-55-2.4-55s-4.7-60.2-5.6-60.1
			c-0.9,0.1,3.4,116.7,4,128.9C152.8,161.3,155.9,228.7,155.9,228.7z"/>
	</g>
	<g id="light">
		<path d="M172.6,227.9l-6.7,0.4c0,0,3.7-44.4,16.7-74.1c2.8-6.5,16.5-25.4,34.5-42.1c11.1-10.3,35.4-23.8,37.4-22.2
			c1,0.8-11.6,8.4-26.4,21.6c-22.4,19.9-40.5,53.8-37.7,53.4c1.1-0.1,6.4-6.7,13.1-12.7c10.3-9.1,23.1-18.6,21.5-15.8
			c-2.2,3.9-34.4,26.9-42.8,51.6C179,197.6,175.4,208.7,172.6,227.9z"/>
		<path d="M144.8,227.8l6.6,0.9l-3.2-104.5c0,0-24.8-71.8-45-90.2c0,0-1.4-1-1,0.7c0.4,1.7,16.1,30.5,21.4,44.9s16,51.9,13.6,54.1
			c-2.4,2.2-10.2-15.6-23.1-26.1S82.8,84,82,85.5c-0.9,1.5,29.5,28.7,36.1,44.1c6.7,15.4,22.4,44.4,23.7,68.9
			S144.8,227.8,144.8,227.8z"/>
	</g>
</g>
<g id="text">
	<path d="M49.9,259.6h-9.4l-1.5,4.5h-6.4l9.1-25.3h7.1l9.1,25.3h-6.5L49.9,259.6z M48.3,254.8l-3.1-9.3l-3.1,9.3H48.3z"/>
	<path d="M66.7,238.8v15.1c0,1.5,0.4,2.7,1.1,3.5c0.7,0.8,1.8,1.2,3.3,1.2s2.5-0.4,3.3-1.2c0.8-0.8,1.2-2,1.2-3.5v-15.1h6.2v15.1
		c0,2.3-0.5,4.2-1.4,5.7c-1,1.6-2.3,2.7-3.9,3.5s-3.4,1.2-5.4,1.2c-2,0-3.8-0.4-5.3-1.2c-1.6-0.8-2.8-2-3.7-3.5
		c-0.9-1.6-1.4-3.5-1.4-5.7v-15.1H66.7z"/>
	<path d="M100.7,264l-8.5-11.2V264H86v-25.3h6.2v11.1l8.4-11.1h7.2l-9.8,12.4l10.2,12.9H100.7z"/>
	<path d="M115.3,263.4c-1.5-0.6-2.6-1.5-3.5-2.7c-0.9-1.2-1.3-2.6-1.4-4.2h6.6c0.1,0.9,0.4,1.7,1,2.1c0.6,0.5,1.3,0.7,2.2,0.7
		c0.9,0,1.6-0.2,2.2-0.6c0.5-0.4,0.8-1,0.8-1.7c0-0.6-0.2-1.1-0.6-1.5c-0.4-0.4-0.9-0.7-1.5-1c-0.6-0.3-1.5-0.6-2.6-0.9
		c-1.6-0.5-3-1-4-1.5c-1-0.5-1.9-1.2-2.7-2.2c-0.7-1-1.1-2.3-1.1-3.9c0-2.4,0.9-4.2,2.6-5.5c1.7-1.3,3.9-2,6.7-2c2.8,0,5,0.7,6.7,2
		c1.7,1.3,2.6,3.2,2.7,5.6h-6.7c0-0.8-0.3-1.5-0.9-1.9c-0.6-0.5-1.3-0.7-2.1-0.7c-0.7,0-1.3,0.2-1.8,0.6c-0.5,0.4-0.7,1-0.7,1.7
		c0,0.8,0.4,1.5,1.2,1.9c0.8,0.5,2,0.9,3.6,1.5c1.6,0.6,3,1.1,4,1.6c1,0.5,1.9,1.2,2.6,2.2c0.7,1,1.1,2.2,1.1,3.7
		c0,1.4-0.4,2.7-1.1,3.9c-0.7,1.2-1.8,2.1-3.2,2.8c-1.4,0.7-3,1-4.9,1C118.4,264.3,116.8,264,115.3,263.4z M125.5,234.3l-5.6,2.8
		l-5.6-2.8v-4.2l5.6,3.1l5.6-3.1V234.3z"/>
	<path d="M151.5,238.8v4.9h-6.7V264h-6.2v-20.3h-6.7v-4.9H151.5z"/>
	<path d="M170.3,259.6h-9.4l-1.5,4.5h-6.4l9.1-25.3h7.1l9.1,25.3h-6.5L170.3,259.6z M168.7,254.8l-3.1-9.3l-3.1,9.3H168.7z"/>
	<path d="M187.2,238.8V264h-6.2v-25.3H187.2z"/>
	<path d="M209.9,238.8v4.9h-6.7V264H197v-20.3h-6.7v-4.9H209.9z"/>
	<path d="M219.1,238.8V264H213v-25.3H219.1z"/>
	<path d="M239.4,238.8V256c0,2.7-0.8,4.7-2.3,6.2c-1.5,1.4-3.5,2.2-6.1,2.2c-2.7,0-4.8-0.8-6.4-2.3c-1.6-1.5-2.4-3.7-2.4-6.4h6.1
		c0,1.1,0.2,1.9,0.6,2.4c0.4,0.5,1.1,0.8,1.9,0.8c0.7,0,1.3-0.2,1.7-0.7c0.4-0.5,0.6-1.2,0.6-2.1v-17.2H239.4z"/>
	<path d="M249.8,262.6c-2-1.1-3.6-2.6-4.7-4.6c-1.2-2-1.7-4.2-1.7-6.7c0-2.5,0.6-4.7,1.7-6.7c1.2-2,2.7-3.5,4.7-4.6
		c2-1.1,4.2-1.7,6.5-1.7s4.6,0.6,6.5,1.7c2,1.1,3.5,2.6,4.7,4.6c1.1,2,1.7,4.2,1.7,6.7c0,2.5-0.6,4.7-1.7,6.7
		c-1.2,2-2.7,3.5-4.7,4.6c-2,1.1-4.1,1.7-6.5,1.7S251.8,263.7,249.8,262.6z M261.2,256.7c1.2-1.3,1.8-3.1,1.8-5.3
		c0-2.2-0.6-4-1.8-5.3s-2.8-2-4.8-2c-2,0-3.7,0.7-4.9,2c-1.2,1.3-1.8,3.1-1.8,5.4c0,2.2,0.6,4,1.8,5.3s2.8,2,4.9,2
		C258.4,258.7,260,258,261.2,256.7z"/>
	<path d="M276.9,263.4c-1.5-0.6-2.6-1.5-3.5-2.7s-1.3-2.6-1.4-4.2h6.6c0.1,0.9,0.4,1.7,1,2.1c0.6,0.5,1.3,0.7,2.2,0.7
		c0.9,0,1.6-0.2,2.2-0.6c0.5-0.4,0.8-1,0.8-1.7c0-0.6-0.2-1.1-0.6-1.5s-0.9-0.7-1.5-1c-0.6-0.3-1.5-0.6-2.6-0.9c-1.6-0.5-3-1-4-1.5
		c-1-0.5-1.9-1.2-2.7-2.2c-0.7-1-1.1-2.3-1.1-3.9c0-2.4,0.9-4.2,2.6-5.5s3.9-2,6.7-2c2.8,0,5,0.7,6.7,2c1.7,1.3,2.6,3.2,2.7,5.6
		h-6.7c0-0.8-0.3-1.5-0.9-1.9c-0.6-0.5-1.3-0.7-2.1-0.7c-0.7,0-1.3,0.2-1.8,0.6c-0.5,0.4-0.7,1-0.7,1.7c0,0.8,0.4,1.5,1.2,1.9
		c0.8,0.5,2,0.9,3.6,1.5c1.6,0.6,3,1.1,4,1.6s1.9,1.2,2.6,2.2c0.7,1,1.1,2.2,1.1,3.7c0,1.4-0.4,2.7-1.1,3.9s-1.8,2.1-3.2,2.8
		c-1.4,0.7-3,1-4.9,1C280,264.3,278.3,264,276.9,263.4z"/>
	<path d="M4.9,306.6c-1.5-0.6-2.6-1.5-3.5-2.7c-0.9-1.2-1.3-2.6-1.4-4.2h6.6c0.1,0.9,0.4,1.7,1,2.1c0.6,0.5,1.3,0.7,2.2,0.7
		c0.9,0,1.6-0.2,2.2-0.6c0.5-0.4,0.8-1,0.8-1.7c0-0.6-0.2-1.1-0.6-1.5c-0.4-0.4-0.9-0.7-1.5-1c-0.6-0.3-1.5-0.6-2.6-0.9
		c-1.6-0.5-3-1-4-1.5c-1-0.5-1.9-1.2-2.7-2.2c-0.7-1-1.1-2.3-1.1-3.9c0-2.4,0.9-4.2,2.6-5.5c1.7-1.3,3.9-2,6.7-2c2.8,0,5,0.7,6.7,2
		c1.7,1.3,2.6,3.2,2.7,5.6h-6.7c0-0.8-0.3-1.5-0.9-1.9c-0.6-0.5-1.3-0.7-2.1-0.7c-0.7,0-1.3,0.2-1.8,0.6c-0.5,0.4-0.7,1-0.7,1.7
		c0,0.8,0.4,1.5,1.2,1.9c0.8,0.5,2,0.9,3.6,1.5c1.6,0.6,3,1.1,4,1.6c1,0.5,1.9,1.2,2.6,2.2c0.7,1,1.1,2.2,1.1,3.7
		c0,1.4-0.4,2.7-1.1,3.9c-0.7,1.2-1.8,2.1-3.2,2.8c-1.4,0.7-3,1-4.9,1C8,307.5,6.4,307.2,4.9,306.6z"/>
	<path d="M37.5,307.2L29,296.1v11.2h-6.2V282H29V293l8.4-11.1h7.2l-9.8,12.4L45,307.2H37.5z"/>
	<path d="M54.1,302.5h8.1v4.8H48V282h6.2V302.5z"/>
	<path d="M86.8,282L78,298.9v8.4h-6.2v-8.4L63.1,282h7l4.9,10.6l4.9-10.6H86.8z"/>
	<path d="M107.5,294.1c-0.7,1.2-1.7,2.2-3.1,2.9c-1.4,0.7-3.1,1.1-5.2,1.1h-3.8v9.1h-6.2V282h10c2,0,3.7,0.3,5.1,1
		c1.4,0.7,2.4,1.7,3.1,2.9c0.7,1.2,1,2.6,1,4.2C108.5,291.6,108.2,292.9,107.5,294.1z M101.4,292.4c0.6-0.6,0.9-1.3,0.9-2.3
		s-0.3-1.8-0.9-2.3c-0.6-0.6-1.5-0.8-2.6-0.8h-3.3v6.3h3.3C100,293.3,100.8,293,101.4,292.4z"/>
	<path d="M132.8,282V297c0,2.7-0.7,5-2.1,6.7c-1.4,1.7-3.2,2.9-5.5,3.4v0l-1.7,0.8c-0.9,0.5-1.5,0.9-1.9,1.2
		c-0.4,0.3-0.5,0.7-0.5,1.1c0,0.4,0.1,0.6,0.4,0.9s0.7,0.3,1.2,0.3c0.8,0,1.7-0.2,2.7-0.5v3.5c-1.1,0.4-2.3,0.5-3.5,0.5
		c-1.6,0-2.8-0.4-3.8-1.1c-1-0.7-1.5-1.7-1.5-3c0-0.7,0.2-1.4,0.5-2c0.3-0.6,0.9-1.2,1.6-1.8c-2.2-0.6-3.9-1.7-5.1-3.4
		c-1.3-1.7-1.9-3.9-1.9-6.6V282h6.2v15.1c0,1.5,0.4,2.7,1.1,3.5c0.7,0.8,1.8,1.2,3.3,1.2s2.5-0.4,3.3-1.2c0.8-0.8,1.2-2,1.2-3.5V282
		H132.8z"/>
	<path d="M163,294.1c-0.7,1.2-1.7,2.2-3.1,2.9c-1.4,0.7-3.1,1.1-5.2,1.1h-3.8v9.1h-6.2V282h10c2,0,3.7,0.3,5.1,1s2.4,1.7,3.1,2.9
		c0.7,1.2,1,2.6,1,4.2C164,291.6,163.7,292.9,163,294.1z M156.9,292.4c0.6-0.6,0.9-1.3,0.9-2.3s-0.3-1.8-0.9-2.3
		c-0.6-0.6-1.5-0.8-2.6-0.8h-3.3v6.3h3.3C155.4,293.3,156.3,293,156.9,292.4z"/>
	<path d="M180.1,307.2l-5.3-9.5h-1.5v9.5h-6.2V282h10.3c2,0,3.7,0.3,5.1,1c1.4,0.7,2.5,1.7,3.1,2.9c0.7,1.2,1,2.6,1,4
		c0,1.7-0.5,3.2-1.4,4.5c-0.9,1.3-2.3,2.3-4.2,2.8l5.8,10H180.1z M173.4,293.3h3.8c1.1,0,2-0.3,2.5-0.8c0.6-0.6,0.8-1.3,0.8-2.3
		c0-1-0.3-1.7-0.8-2.3c-0.6-0.6-1.4-0.8-2.5-0.8h-3.8V293.3z"/>
	<path d="M196.8,282v25.3h-6.2V282H196.8z"/>
	<path d="M207.5,286.9v5.1h8.2v4.8h-8.2v5.5h9.3v4.9h-15.5V282h15.5v4.9H207.5z"/>
	<path d="M227.3,302.2h10.9v5h-17.9v-4.7l10.8-15.6h-10.8v-5h17.9v4.7L227.3,302.2z M234.9,277.7l-5.6,2.8l-5.6-2.8v-4.2l5.6,3.1
		l5.6-3.1V277.7z"/>
	<path d="M248.4,282v25.3h-6.2V282H248.4z"/>
	<path d="M258.9,282v15.1c0,1.5,0.4,2.7,1.1,3.5c0.7,0.8,1.8,1.2,3.3,1.2c1.4,0,2.5-0.4,3.3-1.2c0.8-0.8,1.2-2,1.2-3.5V282h6.2V297
		c0,2.3-0.5,4.2-1.4,5.7c-1,1.6-2.3,2.7-3.9,3.5s-3.4,1.2-5.4,1.2c-2,0-3.8-0.4-5.3-1.2c-1.6-0.8-2.8-2-3.7-3.5
		c-0.9-1.6-1.4-3.5-1.4-5.7V282H258.9z M270.5,275.1v4.2h-14.4v-4.2H270.5z"/>
	<path d="M291.1,307.2l-5.3-9.5h-1.5v9.5h-6.2V282h10.3c2,0,3.7,0.3,5.1,1s2.5,1.7,3.2,2.9c0.7,1.2,1,2.6,1,4c0,1.7-0.5,3.2-1.4,4.5
		c-0.9,1.3-2.3,2.3-4.2,2.8l5.8,10H291.1z M284.4,293.3h3.8c1.1,0,2-0.3,2.5-0.8s0.8-1.3,0.8-2.3c0-1-0.3-1.7-0.8-2.3
		c-0.6-0.6-1.4-0.8-2.5-0.8h-3.8V293.3z"/>
	<path d="M317.4,302.8H308l-1.5,4.5h-6.4l9.1-25.3h7.1l9.1,25.3H319L317.4,302.8z M315.9,298l-3.1-9.3l-3.1,9.3H315.9z"/>
</g>
</svg>
