<?xml version="1.0" encoding="utf-8"?>
<!-- Generator: Adobe Illustrator 24.1.2, SVG Export Plug-In . SVG Version: 6.00 Build 0)  -->
<svg version="1.1" id="logo_1_" xmlns="http://www.w3.org/2000/svg" xmlns:xlink="http://www.w3.org/1999/xlink" x="0px" y="0px"
	 viewBox="0 0 232.4 228.7" style="enable-background:new 0 0 232.4 228.7;" xml:space="preserve">
<g id="logo">
	<g id="dark">
		<path style="fill:#FFFFFF;" d="M89.8,195.8c-1.8-17.3-7.3-33.6-7.3-33.6c-10.3-17.4-28-28.5-36.6-33.1
			c20.5,12.2,33.9,44.6,33.9,44.6l-1,0.9C62,147.3,26,140.9,26,140.9c45,23.1,52.5,53.2,53.6,66.4c-38.9-14.2-66.7-51.7-66.7-95.8
			C12.9,55.2,58.4,7.7,114.2,7.7c22.8,0,44.5,5,63.2,18.3c25.8,18.3,45,49.7,46.2,81.3l1.2-0.1c-1.9-34.6-19.3-64.7-43.3-84.1
			c-18-14.5-38.8-23-65.3-23C52,0,0,50.2,0,113.8c0,55.7,39.9,102.1,92.9,112.8C92.9,226.6,89.9,196.8,89.8,195.8z"/>
		<path style="fill:#FFFFFF;" d="M232.4,112.7h-17.6c-0.5,45-30,83-70.5,95.9c3.3-13.5,17.6-59.2,65.4-75.9c0,0-58.6,10-72.1,77.8
			c-0.5,0.1-3.5,17-3.5,17c55.6-8.6,98.2-56.2,98.2-113.7C232.4,113.4,232.4,113,232.4,112.7z"/>
		<path style="fill:#FFFFFF;" d="M109.9,228.7h5.6c0,0,3-39.7,4.7-51.2c1.6-10.1,14.8-36.4,14.8-36.4s25-49.3,25.6-51.4
			s-12.8,18.2-17.6,25.1c-9.8,14.2-18.7,33-22.9,41.4c-3.4,6.8-0.4-12.1,2.7-34.2c3.1-22.1,18.6-59.6,18.6-59.6s10.2-26.4,13.3-28.8
			c0,0,0.2-3.1-1.7,0c-1.9,3.1-30.3,50.3-35.7,76.9c-5.3,26.6-5.8,24.9-7.2,24.7c-1.4-0.2-2.4-55-2.4-55s-4.7-60.2-5.6-60.1
			c-0.9,0.1,3.4,116.7,4,128.9C106.8,161.3,109.9,228.7,109.9,228.7z"/>
	</g>
	<g id="light">
		<path style="fill:#FFFFFF;" d="M126.6,227.9l-6.7,0.4c0,0,3.7-44.4,16.7-74.1c2.8-6.5,16.5-25.4,34.5-42.1
			c11.1-10.3,35.4-23.8,37.4-22.2c1,0.8-11.6,8.4-26.4,21.6c-22.4,19.9-40.5,53.8-37.7,53.4c1.1-0.1,6.4-6.7,13.1-12.7
			c10.3-9.1,23.1-18.6,21.5-15.8c-2.2,3.9-34.4,26.9-42.8,51.6C132.9,197.6,129.4,208.7,126.6,227.9z"/>
		<path style="fill:#FFFFFF;" d="M98.8,227.8l6.6,0.9l-3.2-104.5c0,0-24.8-71.8-45-90.2c0,0-1.4-1-1,0.7
			c0.4,1.7,16.1,30.5,21.4,44.9s16,51.9,13.6,54.1c-2.4,2.2-10.2-15.6-23.1-26.1S36.8,84,35.9,85.5C35,87,65.4,114.2,72.1,129.6
			c6.7,15.4,22.4,44.4,23.7,68.9C97.1,223,98.8,227.8,98.8,227.8z"/>
	</g>
</g>
</svg>
