<?xml version="1.0" encoding="utf-8"?>
<!-- Generator: Adobe Illustrator 24.1.2, SVG Export Plug-In . SVG Version: 6.00 Build 0)  -->
<svg version="1.1" id="Layer_1" xmlns="http://www.w3.org/2000/svg" xmlns:xlink="http://www.w3.org/1999/xlink" x="0px" y="0px"
	 viewBox="0 0 131.6 49.7" style="enable-background:new 0 0 131.6 49.7;" xml:space="preserve">
<g>
	<path d="M127.4,6.1c-2.9-3-6.8-4.4-11.8-4.4H93.1v48h10.2V32.7h12.2c5,0,8.9-1.5,11.8-4.5c2.9-3,4.3-6.6,4.3-11
		C131.6,12.8,130.2,9.1,127.4,6.1z M119.2,21.9c-1.3,1.2-3,1.8-5.1,1.8h-10.9v-13h10.9c2.1,0,3.8,0.6,5.1,1.8c1.3,1.2,2,2.7,2,4.7
		C121.2,19.2,120.5,20.7,119.2,21.9z"/>
	<path d="M84.8,22.6c-0.5-0.2-1.2-0.6-1.2-0.6l-7,9c1.6,0.4,1.8,0.3,3,1c1.4,0.9,2,2.7,2,4c0,1,0.7,6.2-5.1,5.6
		c-0.7-0.1-1.2-0.3-1.8-0.6c0,0,0,0-0.1,0c-2.8,0.6-6.7,0.8-11,0.8l-0.7,0l-0.4-0.1c-0.9-0.8,3-0.2,2.9-0.4
		c-0.1-0.1,0.2-0.3-1.1-0.3c-2.3,0.1-2.9-0.6-3.4-1c-0.1-0.3-0.3-0.7-0.4-1l-0.1-0.5l0-0.2c0-0.2,0-1.3,0-1.5c0-0.1,0-0.3,0.1-0.5
		c0-0.2,0.1-0.4,0-0.4l0-0.1l-0.1,0.1c-0.2,0.3-0.3,0.9-0.4,1.5c0,0.2,0,0.5,0,0.8c0-0.1-0.1-0.1-0.1-0.1c0,0-0.2-0.1-0.2-0.1
		c0-0.2,0-0.5,0.1-0.8c0.1-0.4,0.1-0.5,0-0.5c0,0,0,0,0-0.2c0-0.1,0-0.2-0.1-0.1c-0.2,0.4-0.4,1.4-0.5,2.1c0,0.1,0,0.2,0,0.2
		c0-0.1-0.2-0.8-0.2-0.9c0-0.1,0-0.1,0-0.1c0,0-0.1-0.2-0.2-0.5c-0.2-0.7-0.6-1.6-0.7-1.6c0,0,0,0.2,0,0.4c0,0.1,0.1,0.5,0.2,0.8
		c0.3,1.5,0.4,1.9,0.4,2.1l0,0.2l-0.1-0.2c-0.1-0.4-0.3-1-0.4-1.3c-0.1-0.2-0.1-0.3-0.1-0.6c-0.1-0.5-0.1-0.6-0.2-0.4l0,0.1L58,37
		c0-0.1-0.1-0.1-0.1-0.1c0,0,0,0.2,0,0.4c0,0.2,0.1,0.3,0,0.4c0,0.2,0,0.6-0.1,1.5c0,0.3,0,0.3,0-0.4c0-1.3-0.1-2.1-0.1-2.5
		c-0.1-0.3-0.1-0.3-0.2,0.1c0,0.1,0,0.3,0,0.5c0,0.2,0,0.2,0,0.2c0,0,0,0-0.1,0.2c-0.1,0.5-0.1,1.7-0.2,3.1l0,0.7l-0.1-0.3
		c-0.2-1-0.2-1.4-0.2-2.3c0-0.7,0-0.7,0.1-1.1c0.1-0.6,0.1-0.6,0.1-0.6c0,0-0.2,0.3-0.2,0.5c-0.1,0.5-0.2,0.9-0.2,1.7
		c0,0.4,0,0.6,0,0.5c-0.1-0.6-0.3-1.3-0.4-1.3c0,0,0,0.2,0,0.7c0,0.2,0.1,0.6,0.1,0.7c0,0.2,0,0.3,0,0.4c0,0,0,0,0,0
		c0,0,0-0.1-0.1-0.2c0-0.2-0.1-0.5-0.2-0.7c0-0.1-0.1-0.3-0.1-0.5c-0.1-0.5-0.2-1.1-0.3-1.5c-0.2-0.8-0.5-1.6-0.6-1.5
		c0,0,0,0.2,0.1,0.9c0.1,0.5,0.2,1.3,0.3,1.5c0,0.1,0,0.2-0.1,0.5c-0.1,0.3-0.3,1-0.3,1.1c0,0.1,0,0.1,0,0.1c0,0,0-0.4,0.1-0.8
		c0.1-0.8,0.1-1.1,0.1-1c0,0.1-0.2,0.4-0.3,0.8c-0.1,0.2-0.1,0.4-0.1,0.4c0,0,0.1-0.4,0.1-0.9c0.1-0.5,0.1-0.9,0.1-1
		c0-0.2,0-0.2,0-0.2c-0.1,0.1-0.4,1.1-0.6,1.9c-0.2,0.9-0.3,1.7-0.3,2.5l0,0.1c-0.1,0-0.3,0-0.4,0c0-0.1,0-0.2,0-0.3
		c0.1-1,0.4-2.2,0.7-3.6c0.2-0.8,0.3-1.2,0.2-1.2c-0.1,0-0.4,0.7-0.6,1.5L54,38.4l0-0.2c0-0.2-0.1-0.4-0.1-0.4c0,0,0,0.2,0,0.4
		c0,0.2-0.1,0.7-0.1,1c-0.1,0.4-0.2,1-0.4,1.8c-0.1,0.4-0.1,0.6-0.2,0.7c0,0-0.1,0-0.1,0c0.1-0.3,0.2-1,0.3-1.3
		c0.1-0.5,0.2-1,0.3-1.4c0.1-0.4,0.1-1.3,0-1.6c0-0.2-0.1-0.5-0.1-0.5c0,0,0,0.2,0,0.4c0,0.4-0.1,1.1-0.2,1.6l-0.1,0.3l0-0.3
		c0-0.5-0.1-1.2-0.2-1.2c0,0,0,0.1,0,0.2c-0.1,1-0.2,1.7-0.4,2.8l0,0.2l0-0.1c0-1.2-0.2-2.5-0.5-3.5c-0.2-0.8-0.5-1.6-0.6-1.5
		c0,0,0,0.3,0.1,0.9c0.3,1.6,0.5,3.1,0.4,4.6c0,0.2,0,0.4,0,0.5c0,0-0.1,0-0.1,0c0-0.6,0.1-1.9,0-2.5c-0.1-1.6-0.4-3.2-0.8-4.5
		c-0.2-0.7-0.5-1.3-0.6-1.3c0,0,0,0,0,0.1c0,0.1,0,0.3,0.1,0.6c0.3,1.3,0.4,2,0.5,2.6c0,0.1,0,0.3,0,0.3c0,0,0,0,0,0
		c0,0-0.1-0.2-0.1-0.3c-0.2-0.6-0.3-1.1-0.5-1.3c-0.2-0.3-0.2-0.1,0,0.7c0.2,0.9,0.3,1.5,0.4,2.4c0.1,0.6,0.2,2.2,0.1,2
		c0,0,0-0.2-0.1-0.3c-0.1-0.4-0.3-0.9-0.4-1.2c-0.1-0.3-0.4-0.6-0.5-0.7c0,0,0-0.1,0-0.1c0-0.1,0-0.1,0,0c0,0-0.1,0-0.1-0.1
		c-0.1-0.1-0.2-0.2-0.3-0.2c-0.2-0.1-0.2-0.1-0.3-0.3c-0.1-0.1-0.2-0.2-0.3-0.3c-0.2-0.1-0.2-0.2-0.4-0.3c-0.2-0.1-0.3-0.1-0.3-0.1
		c0,0,0.2,0.3,0.3,0.4c0,0,0.1,0.1,0.2,0.2l0.1,0.2l0,0.3c0,0.1,0,0.3,0,0.3c0,0-0.1-0.1-0.1-0.1c-0.1-0.1-0.2-0.2-0.3-0.2L48,37.4
		l0-0.1c0-0.2,0-0.2-0.1,0c0,0.1-0.1,0.1-0.1,0.1c0,0,0,0,0,0.1c0,0.1,0,0.2-0.1,0.3c0,0.1-0.1,0.3-0.2,0.5l-0.1,0.3l0-0.2
		c0-0.2,0-1.2,0-1.5c0-0.2,0.1-0.4,0.1-0.6c0-0.2,0-0.4,0-0.4c-0.1-0.1-0.3,0.6-0.4,1.1C47,37.5,47,38.4,47,39.3l0,0.4L47,39.9
		c0,0.2-0.1,0.3-0.1,0.3c0,0,0,0,0-0.1c-0.2-1.1-0.2-1.9,0-2.7c0.1-0.4,0.1-0.6,0-0.6c0,0,0,0,0-0.1c0-0.1,0-0.2,0-0.2
		c0,0-0.2,0.3-0.2,0.5c-0.1,0.4-0.3,1.1-0.3,1.7l0,0.1l0-0.2c-0.2-0.9-0.7-2.4-1-2.8c-0.2-0.3-0.1,0,0.1,0.9
		c0.3,1.3,0.5,2.1,0.6,2.9l-0.2-0.5c-0.1-0.4-0.2-0.7-0.3-1.1c-0.2-0.6-0.5-1.3-0.5-1.3c0,0,0,0,0,0.1L31.4,1.7H18.6L0,49.7h11.7
		l3-8.1h20.6l3,8.1h11.7l0,0c10.4,0,14.5-0.1,22.8-0.1c6.2,0,11-1.4,14.3-4.2c3.3-2.8,4.9-6.6,4.9-11.2c0-2.8-0.7-5.2-2.1-7.2
		C88.5,25,86.8,23.6,84.8,22.6z M61.4,40.9l0,1h-0.1h-0.1v-0.8c0-0.1-0.1-0.3-0.2-0.6C61.2,40.6,61.2,40.7,61.4,40.9z M60.7,40.8
		c0,0.1,0-0.1-0.1-0.3C60.7,40.6,60.7,40.7,60.7,40.8z M60.2,41.2c0-0.2,0-0.3,0-0.3c0-0.1,0,0,0.1,0.5c0.1,0.3,0.1,0.5,0.1,0.5
		c0,0-0.1,0-0.1,0h-0.1l0-0.2C60.1,41.5,60.1,41.5,60.2,41.2z M60,39.6L60,39.6L60,39.9c0,0.2-0.1,0.3-0.1,0.3c0,0-0.1-0.4-0.1-0.8
		C59.9,39.5,59.9,39.5,60,39.6z M59.8,38.1c0,0.1,0.1,0.4,0.2,0.7c0,0.2,0,0.4,0,0.6l0,0.1c-0.1-0.1-0.2-0.1-0.2-0.2
		c0-0.2,0-0.3,0-0.4C59.7,38.5,59.7,38.3,59.8,38.1z M58.4,39c0,0,0.1,0.2,0.1,0.5c0.2,0.9,0.3,1.9,0.3,2.2v0.1c-0.1,0-0.3,0-0.4,0
		l0-1.1c0-0.6,0-1.3,0-1.4C58.4,39.1,58.4,39,58.4,39z M48.9,39.4v-0.3l0,0.1c0,0.1,0.1,0.3,0.1,0.5c0.1,0.5,0.2,0.6,0.1,0.8
		c0,0.1,0,0.3-0.1,0.4c0,0.1,0,0.3,0,0.3c0,0.1,0,0.1,0,0c0-0.1,0-0.2,0-0.3c0-0.1,0-0.3,0-0.4c0-0.1,0-0.3-0.1-0.5
		C49,39.8,48.9,39.6,48.9,39.4z M56.1,40.7l0,0.4c0,0.2,0,0.5,0,0.6c0,0,0,0.1,0,0.1c0,0-0.1,0-0.1,0c0-0.1,0-0.3,0-0.5L56.1,40.7z
		 M55.1,39.8C55.1,39.8,55.1,39.8,55.1,39.8C55.1,39.8,55.1,39.8,55.1,39.8C55.1,39.8,55.1,39.8,55.1,39.8z M55.2,41.7
		c0-0.1,0-0.2,0-0.3c0-0.6,0.1-1.1,0.2-2c0-0.3,0.1-0.5,0.1-0.5c0-0.1,0,0.4,0.1,0.9c0,0.4,0,0.9,0,1.3c0,0.3,0,0.5,0,0.6
		C55.5,41.7,55.3,41.7,55.2,41.7L55.2,41.7z M49.9,38.7c0-0.2,0-0.2,0.2,0.1c0.4,0.7,0.6,1.6,0.6,2.7l0,0c-0.1,0-0.3,0-0.4,0v0
		c0-0.6-0.1-1.3-0.2-1.8c0-0.2-0.2-0.7-0.2-0.8C49.8,38.9,49.8,38.8,49.9,38.7z M49.6,38c0.2,0.2,0.2,0.3,0.2,0.4
		c0,0.1-0.1,0.1-0.1,0.1c0,0-0.1-0.1-0.1-0.3c-0.1-0.1-0.1-0.2-0.1-0.2C49.5,37.9,49.5,38,49.6,38z M48.9,37.7c0,0,0.1,0.2,0.2,0.3
		c0.1,0.3,0.1,0.3,0.2,0.6c0,0.2,0,0.3,0,0.3c0,0,0-0.1-0.1-0.2c0-0.1-0.1-0.2-0.2-0.3c-0.1-0.1-0.1-0.2-0.1-0.4
		C48.9,37.9,48.9,37.8,48.9,37.7L48.9,37.7L48.9,37.7z M47.6,39.1c0.1-0.6,0.3-1.4,0.3-1.4c0,0,0,0,0.1,0.1c0.1,0.1,0.3,0.3,0.4,0.5
		c0.1,0.1,0.1,0.1,0.1,0.2c0,0,0,0.1,0,0.2c0,0.1,0,0.2,0,0.1c-0.1-0.3-0.2-0.3-0.2-0.1c0,0.1,0,0.4,0.1,0.7
		c0.1,0.5,0.1,0.7,0.1,1.6l0,0.7c-0.1,0-0.1,0-0.2,0v-0.6c0-1.5,0-2.6-0.1-2.8c0-0.1,0-0.1-0.1-0.1c0,0,0,0.1,0,0.1c0,0,0,0.1,0,0.1
		c0,0,0,0,0,0c0-0.1,0,0-0.1,0.1c-0.1,0.2-0.1,1.2-0.2,2.2c0,0.3,0,0.5,0,0.5c0,0-0.2-0.8-0.2-1.1l0-0.2L47.6,39.1z M47.3,40.8
		c0,0,0.1,0.2,0.1,0.5c0,0,0,0.1,0,0.1c-0.1,0-0.1,0-0.2,0c0-0.1,0-0.1,0-0.2C47.2,41,47.3,40.8,47.3,40.8z M17.5,32.6L25,11.9
		l7.5,20.7H17.5z"/>
	<path d="M61.1,26.1c1.4,0.6,2.8,1.2,4.4,1.7c0.2-0.2,0.4-0.3,0.7-0.3l5.5,0.1c0.6,0,1,0.5,1,1l0,1l1,0c0.3,0,6.8-8.6,6.8-8.6
		c-1.2-0.5-1.1-0.6-2.4-1c-2.4-0.7-4.6-1.3-6.6-1.7c-2-0.4-3.7-1-5.1-1.8c-1.4-0.8-2.1-1.8-2.1-2.9c0-1.5,0.6-2.7,1.8-3.5
		c1.2-0.9,2.9-1.3,5-1.3c5.5,0,10.2,1.8,14,5.3l5.7-7.5C86,2.2,79.8,0,72.2,0c-5.5,0-9.9,1.4-13.2,4.2c-3.3,2.8-5,6.3-5,10.4
		c0,2.8,0.7,5.2,2.1,7.2C57.4,23.8,59.1,25.2,61.1,26.1z"/>
	<path d="M83.4,21c0.4-0.1,2.9,1.1,3.2,1.1s0.5-0.9,0.2-1.2c-0.3-0.4-3.8-1.5-3.8-1.5l-8.8,11.3l-3.5-0.1l0-1l1,0c0,0,0,0,0,0l0,0
		l0-1l-4-0.1l-1.6,0l0,1l2.5,0l0,1l-4.5-0.1l-0.1,4.1L63,34.8c-0.2,0-0.4,0.2-0.4,0.5l0,0.2c1.7,0,3,1.4,3,3l7.2,0.1
		c-0.1-0.3-0.1-0.6-0.1-1c0-2.2,1.9-3.9,4.1-3.9h0l0-0.1c0-0.5-0.5-1-1-0.9L73.8,33C75.4,31,83,21.1,83.4,21z"/>
	<path d="M73.8,37.6c0,1.9,1.5,3.4,3.4,3.4c1.9,0,3.5-1.5,3.5-3.3c0-1.9-1.5-3.4-3.4-3.4C75.4,34.2,73.8,35.7,73.8,37.6z M77.2,35.9
		c1,0,1.8,0.8,1.8,1.8s-0.8,1.8-1.8,1.8s-1.8-0.8-1.8-1.8S76.2,35.9,77.2,35.9z"/>
	<path d="M60.4,38.3c0,1.1,0.9,2.1,2,2.1c1.1,0,2.1-0.9,2.1-2c0-1.1-0.9-2.1-2-2.1C61.4,36.3,60.4,37.2,60.4,38.3z M63.6,38.2
		c0.1,0.6-0.3,1.2-0.9,1.3c-0.6,0.1-1.2-0.3-1.3-0.9c-0.1-0.6,0.3-1.2,0.9-1.3C62.9,37.2,63.5,37.6,63.6,38.2z"/>
</g>
</svg>
