<?xml version="1.0" encoding="utf-8"?>
<!-- Generator: Adobe Illustrator 24.1.2, SVG Export Plug-In . SVG Version: 6.00 Build 0)  -->
<svg version="1.1" id="Layer_1" xmlns="http://www.w3.org/2000/svg" xmlns:xlink="http://www.w3.org/1999/xlink" x="0px" y="0px"
	 viewBox="0 0 279.6 102.7" style="enable-background:new 0 0 279.6 102.7;" xml:space="preserve">
<g>
	<path style="fill:#0a252c;" d="M270.5,9.5C264.4,3.2,256,0,245.3,0c0,0-77.9,0.6-92.5,0.6c-11.7,0-42.7-0.9-51.4,5.1
		C91.9,12.4,86,21.2,86,30c0,6.1,5.1,17.3,13.3,20.7c6.3,2.6,11,4.7,28.6,5c3.2,0.1,23.6-0.2,23.6-0.2c1.2,0,2.2,0.9,2.2,2.1
		l-0.1,2.2h3.1c0.7,0,14.5-18.4,14.5-18.4c-2.5-1-57.2,1.4-62.4-5c-2-2.4-2.5-4.1-2.5-6.5c0-3.2,2.3-6.1,4.6-8.2
		c5.3-4.9,35.3-3.6,39.9-3.6c11.2,0,31.7,0.1,46.7,0.2l0.3,84.4h21.7V66.2h26c10.6,0,19-3.2,25.1-9.6c6.1-6.4,9.2-14.2,9.2-23.6
		C279.6,23.7,276.5,15.8,270.5,9.5z M253.2,43.2c-2.8,2.5-6.4,3.8-10.8,3.8h-23.1V19.3h23.1c4.4,0,8,1.3,10.8,3.8
		c2.8,2.5,4.2,5.9,4.2,10.1C257.4,37.3,256,40.7,253.2,43.2z"/>
	<path style="fill:#0a252c;" d="M180.1,44.8c-1.1-0.5-2.6-1.2-2.6-1.2l-14.9,19.3c3.4,0.8,3.9,0.7,6.3,2.2c2.9,1.8,4.3,5.7,4.3,8.5
		c0,2.1,1.5,13.2-10.9,12c-1.5-0.1-2.6-0.7-3.8-1.3c-0.1,0-0.1,0-0.2,0c-6,1.3-14.2,1.7-23.3,1.8l-1.6-0.1l-1.6-0.1l-0.3-2.1
		l-0.7-0.2l0,2.3l-0.4,0l-0.6-2.3l-0.8-0.4l0.3,2.7l-0.4,0l-1.1-4.5l-1.1-1l0.9,5.5l-0.6,0c0,0-1.2-6.2-1.6-9
		c-0.4-2.7-1.9-6.5-1.9-6.5c0-0.3,0-0.5,0-0.5c-0.1,0-0.2,0.3-0.3,0.7c0,0.1-0.2,0.7-0.3,1.1c-0.1,0.3-0.3,1.2-0.5,2.1
		c-0.2,0.9-0.4,1.6-0.4,1.8c-0.1,0.3-0.2-1.9-0.1-4c0-2.1,0.1-3.1,0.4-5.8c0.1-0.9,0.1-1.6,0.1-1.6c-0.1-0.1-0.2,0.1-0.4,0.7
		c-0.9,2.9-1.3,7.6-1.1,12.4c0.1,2.8,0.1,3.4-0.1,4.6c-0.1,0.5-0.2,1-0.2,1.1c0,0.1-0.1-0.2-0.1-0.7c-0.4-4.5-0.4-7.6,0-11.4
		c0.2-1.7,0.2-2.2,0.1-2.1c-0.1,0-0.1,0,0-0.1c0.1-0.4,0.1-1.1,0.1-1.1c-0.2,0-0.7,1.9-1.1,4c-0.2,1.4-0.4,3.9-0.4,5.3
		c0,0.7,0,0.7-0.3-1c-0.6-3.3-1.4-6.9-2.1-9.5c-0.4-1.3-0.6-1.8-0.7-1.8c-0.1,0-0.1,0.1,0,0.6c0,0.8,0.1,1.5,0.7,5
		c1,6.6,1.5,9.9,2,15.7c0,0,0,0,0,0.1l-0.1,0c-0.5-4.8-1.3-9.5-2.3-13.5c-0.5-1.8-1-3.6-1.1-3.6c0,0-0.1,0.2,0,0.5
		c0,0.5,0,0.5-0.3-0.7c-0.2-0.5-0.3-0.9-0.4-0.9c-0.2-0.1-0.1,1,0.2,2.7c0.1,0.5,0.2,1,0.2,1.3c0,0.2,0.1,0.8,0.2,1.2
		c0.2,1.1,0.5,3.1,0.6,3.6c0.1,0.9,0.4,2.7,0.5,3.2c0,0.3,0.1,0.7,0.1,0.9c0.1,1,0.2,1.5,0.3,2.6c0.1,0.6,0.2,1.4,0.2,1.7
		c0,0.2,0.1,0.6,0.1,0.9l-1,0c-0.3-4.6-1-10.2-1.9-14.3c-0.5-2.1-0.7-2.6-0.6-1.3c0,0.7,0.6,6.6,0.7,7.7c0,0.3,0.1,0.6,0,0.6
		c0,0,0,0,0,0c0,0-0.1-0.6-0.2-1.2c-0.4-2.1-0.8-4.1-1-4.1c-0.1,0,0,1,0.3,4.6c0.2,1.7,0.3,3.2,0.3,3.3c0,0.1-0.1-0.4-0.2-1.1
		c-0.3-2-0.6-3.5-0.8-4.9l-0.2-0.7l0.1-1.3c0.2-1.8,0.4-3.7,0.7-6.3c0.3-2.2,0.4-3.5,0.3-3.5c-0.1,0-0.6,1.3-1,2.9
		c-0.7,3.1-1.3,6.6-1.7,10.6c-0.1,0.6-0.1,1.2-0.2,1.3c-0.2,0.7-0.8,3.5-0.8,3.9c0,0.1,0,0.2,0,0.1c0,0,0.1-1.9,0.3-4.7
		c0.2-3.4,0.1-3.8-0.4-1.3c-0.2,1.2-0.5,2.9-0.6,4c0,0.4-0.1,0.7-0.1,0.7s0-1,0-2.2c0-3.7-0.2-6.3-0.8-8.6c-0.2-1-0.4-1.4-0.5-1.3
		c0,0,0,0.8,0.1,1.9c0.5,4.8,0.4,8.8-0.4,14.9c0,0.1,0,0.2,0,0.3l-0.2,0c0-0.3,0-0.7,0-1.2c0-5.3-0.3-12.6-0.5-14.1
		c0-0.2-0.1-0.5-0.1-0.5c0,0,0-0.1-0.1,0c-0.1,0-0.1,0-0.1-0.2c0-0.4-0.2-3-0.3-3.5c-0.3-2.4-0.6,2.1-0.7,10.1c0,2-0.1,3.6-0.1,3.6
		c0,0-0.1-1.3-0.1-2.8c-0.2-5.6-0.4-8.4-0.6-8.4c-0.3,0-0.5,4.7-0.6,15.5c0,0.5,0,1,0,1.4l-0.9,0c0.4-2.7,0.6-4.5,0.7-6.2
		c0.1-1.7,0.1-4.7,0-5.7c-0.1-1-0.2-1.4-0.3-1.3c0,0-0.1,0.9-0.1,1.9c-0.1,2.1-0.2,3.5-0.5,5.6l-0.2,1.5l-0.1-0.8
		c-0.1-0.8,0-1.6,0.1-3.2c0.2-2,0.3-4.4,0.2-5.8c-0.1-1.8-0.3-3.2-0.5-3c0,0-0.1,1-0.1,2.1c-0.1,1.8-0.2,3-0.2,2.5
		c0-0.2-0.1-0.3-0.2-0.1c-0.1,0.2-0.2,1.2-0.2,2.3c0,0.8-0.1,0.9-0.1,0.4c0-1.3-0.2-2.9-0.3-3.7c-0.2-0.8-0.2-0.5-0.3,1.1
		c-0.1,2.3-0.2,4.6-0.5,6.3c0,0.2-0.1,0.6-0.1,0.9c-0.1,0.6-0.2,1.7-0.3,2.3c0,0.2-0.1,0.6-0.1,0.8c0,0.2-0.1,0.9-0.2,1.5l-0.1,0.6
		l-0.1,0l0-2c-0.1-6.5-0.8-12.4-2-17.4c-0.3-1.5-0.8-2.9-1-2.9c-0.1,0,0,1.2,0.3,3.5c0.6,4.9,0.9,7.9,1.1,12.1
		c0.1,1.1,0.1,4.2,0.1,6.8l-0.3,0c0-0.6,0-1.2,0-1.9c0-5,0-6.2-0.3-9.5c-0.3-3.8-0.8-7.6-1.5-10.8c-0.5-2.3-1.2-4.8-1.4-5.2
		c-0.3-0.4-0.2,0.2,0.3,4c0.5,4.1,1.1,9.8,1,9.9c0,0-0.1-0.3-0.1-0.8c-0.4-2.9-1.1-6.2-1.7-8.3c-0.3-1-0.5-1.6-0.7-1.6
		c-0.1,0,0,1,0.4,4.5c0.2,1.7,0.2,1.8,0.5,3.9c0.3,2.9,0.5,5.3,0.7,8.5L66.7,0H39.4L0,102.7h24.8l6.4-17.4h43.7l6.3,17.4
		c0,0,55.5-0.3,73.3-0.3c13.2,0,23.4-3,30.3-9.1c7-6.1,10.5-14,10.5-23.9c0-6-1.5-11.1-4.4-15.3C188,49.9,184.4,46.8,180.1,44.8z
		 M37.2,66.1l15.9-44.2L69,66.1H37.2z M101.6,77.8C101.6,77.8,101.6,77.8,101.6,77.8c0-0.2,0-0.2,0-0.2
		C101.7,77.6,101.7,77.7,101.6,77.8z M110.3,85.5c0-0.5,0-0.7,0.1-0.7C110.3,84.8,110.3,85,110.3,85.5L110.3,85.5z M111.8,85.5
		c0-1.9,0-4.1,0-5.3c0.1-2.2,0.1-3.3,0.2-2.7c0,0.1,0.1,0.8,0.1,1.5c0.3,2.8,0.3,3.3,0.4,4.5c0.1,0.7,0.1,1.4,0.1,1.6
		c0,0.1,0,0.3,0,0.4L111.8,85.5z M113.4,81.1C113.4,81.2,113.4,81.2,113.4,81.1c0-0.1,0-0.1,0-0.1C113.4,81,113.4,81.1,113.4,81.1z
		 M121.5,85.7c0-0.2,0-0.3,0.1-0.3c0,0,0,0.1,0,0.3L121.5,85.7z M123.8,73.2c-0.1,0.3-0.7,5.9-0.8,9.2c0,1.6-0.1,3.1-0.1,2.9
		c0-0.2-0.4-3.2-0.5-4.3l-0.1-1.2l0.3-1.7c0.1-0.9,0.4-2.6,0.6-3.7c0.2-1.1,0.5-3.2,0.5-3.3C123.5,70.9,123.9,72.4,123.8,73.2z
		 M124.4,85.7l0-1.9c0-4.5-0.1-7.1-0.2-8.7c0.2,0.8,0.3,1.6,0.4,2.4c0.1,0.4,0.1,0.7,0.1,1c0.2,2.1,0.2,2.8,0.2,6.7l0,0.4
		L124.4,85.7z"/>
	<path style="fill:#0a252c;" d="M136.2,61.6l-0.2,8.7l-2.3,0.4c-0.5,0.1-0.9,0.5-0.9,1l0,0.4c3.5,0.1,6.4,3,6.3,6.5l15.3,0.3
		c-0.2-0.7-0.3-1.4-0.3-2.1c0.1-4.7,4-8.4,8.7-8.3h0l0-0.3c0-1.1-1.1-2-2.2-1.9l-3.9,0.6c3.3-4.3,19.5-25.4,20.2-25.6
		c0.8-0.2,6.1,2.3,6.8,2.3c0.7,0,1.1-1.8,0.5-2.6c-0.6-0.8-8.1-3.3-8.1-3.3L157.6,62l-7.5-0.1l0-2.1l2.1,0c0,0,0.1,0,0.1,0l0,0
		l0-2.1l-8.4-0.2l-3.4-0.1l0,2.1l5.3,0.1l0,2.1L136.2,61.6z"/>
	<path style="fill:#0a252c;" d="M156.7,76.7c-0.1,4,3.2,7.3,7.2,7.4c4,0.1,7.4-3.1,7.5-7.1c0.1-4-3.2-7.3-7.2-7.4
		C160.1,69.5,156.7,72.7,156.7,76.7z M164,73.1c2.1,0,3.8,1.7,3.8,3.9s-1.7,3.9-3.8,3.9s-3.8-1.7-3.8-3.9S161.9,73.1,164,73.1z"/>
	<path style="fill:#0a252c;" d="M128.3,78.3c0,2.4,1.9,4.4,4.4,4.5c2.4,0,4.5-1.9,4.5-4.3c0-2.4-1.9-4.4-4.4-4.5
		C130.3,74,128.3,75.9,128.3,78.3z M135,78.1c0.2,1.3-0.7,2.5-2,2.7c-1.3,0.2-2.5-0.7-2.7-2c-0.2-1.3,0.7-2.5,2-2.7
		C133.7,75.9,134.9,76.8,135,78.1z"/>
</g>
</svg>
