<?xml version="1.0" encoding="utf-8"?>
<!-- Generator: Adobe Illustrator 24.1.2, SVG Export Plug-In . SVG Version: 6.00 Build 0)  -->
<svg version="1.1" id="Layer_1" xmlns="http://www.w3.org/2000/svg" xmlns:xlink="http://www.w3.org/1999/xlink" x="0px" y="0px"
	 viewBox="0 0 175.6 161" enable-background="new 0 0 175.6 161" xml:space="preserve">
<path fill="#FFFFFF" d="M155.1,120c0-0.8-0.1-1.6-0.4-2.3l-5.9-22.2c-0.8-2.1-2.4-3.8-4.5-4.7L99,75.1l27.9-70.4l-5.4-2.1L93.4,73.1
	l-12.2-4.3l25.4-64.2l-5.4-2.1L75.7,67L36.1,53.1c-2.7-0.9-5.6-0.2-7.6,1.7L2.1,81.2c-2,2-2.7,5-1.7,7.7l8.8,23.4
	c0.7,2,2.4,3.6,4.4,4.3l1,0.4c0,0.5-0.1,1-0.1,1.5c0,9,5.2,16.1,11.7,16.1c4.8,0,9-3.9,10.8-9.7l84.9,29.8c0.8,0.3,1.6,0.4,2.4,0.4
	c2,0,4-0.9,5.3-2.3l3.2-3.8c2,7.1,6.6,11.9,12,11.9c7.4,0,13.2-9,13.2-20.5c0-6.4-1.8-12-4.7-15.8
	C154.5,123.4,155.1,121.8,155.1,120z M116.7,122.4c-0.3,0.3-0.6,0.4-1,0.4c-0.2,0-0.3,0-0.5-0.1L18.5,87.6c1.4-1.1,2.7-2.3,4-3.6
	c5-5,7.6-5,15.5-5c2.8,0,5.6-0.5,8.2-1.6c2-0.9,4.2-1.3,6.5-1.3c3,0,5,1.8,7.4,3.8c2.6,2.3,5.6,4.9,10.2,4.9c6.1,0,7.3,1,8.6,2.1
	c2.6,2.1,5.3,3.8,14.8,3.8c6.1,0,8.3,3.4,10.8,7.4c2.2,3.4,4.6,7.2,9.7,7.2c3.7,0.1,7.4-0.6,10.9-2c1.2-0.6,2.5-0.9,3.8-0.9
	c1.5-0.1,3,0.4,4.2,1.5L116.7,122.4z M136.8,99.5c-2.2-2-5.1-3-8.1-2.9c-2,0-4,0.5-5.9,1.3c-2.8,1.2-5.8,1.7-8.8,1.6
	c-1.7,0-2.7-1.3-4.7-4.5c-2.7-4.3-6.5-10.1-15.8-10.1c-8.1,0-9.6-1.2-11.1-2.4c-2.4-1.9-4.8-3.4-12.4-3.4c-2.3,0-3.9-1.3-6.3-3.5
	c-2.7-2.4-6-5.3-11.2-5.3c-2.9,0-5.8,0.6-8.5,1.7c-1.3,0.5-2.6,0.9-4,1.1l-3.9-13.6l103.9,36.3L136.8,99.5z M30.6,60.9l3.5,12.3
	c-6.5,0.2-10.3,1.2-15.8,6.7c-3.7,3.7-5.7,4.8-7.5,5l-3-1.1L30.6,60.9z M7,89.7l106.2,38.7c0.5,0.2,0.9,0.3,1.4,0.3l6.8,19.7
	L15.6,111.2c-0.4-0.1-0.7-0.5-0.9-0.9L7,89.7z M26.3,128.8c-2.7,0-5.7-4-5.8-9.7l11.1,3.9C30.6,126.4,28.5,128.8,26.3,128.8z
	 M131.7,140.5c0,0.3,0,0.6,0,0.8l-4.6,5.5l-6.9-19.8c0.2-0.2,0.5-0.4,0.7-0.6l23.1-26.3l5.1,19.3c0.1,0.2,0.1,0.3,0.1,0.5
	c0,0.3-0.1,0.7-0.4,0.9c-1.2-0.6-2.6-0.9-4-0.9C137.5,120,131.7,129,131.7,140.5L131.7,140.5z M144.9,155.2c-3.5,0-7.3-6-7.3-14.6
	s3.9-14.6,7.3-14.6s7.3,6,7.3,14.6S148.4,155.2,144.9,155.2L144.9,155.2z"/>
<rect x="32.2" y="84.9" fill="#FFFFFF" width="5.8" height="5.8"/>
<rect x="46.8" y="84.9" fill="#FFFFFF" width="5.8" height="5.8"/>
<rect x="67.3" y="93.7" fill="#FFFFFF" width="5.8" height="5.8"/>
<rect x="84.9" y="96.6" fill="#FFFFFF" width="5.8" height="5.8"/>
<rect x="96.6" y="105.4" fill="#FFFFFF" width="5.8" height="5.8"/>
<rect x="111.2" y="111.2" fill="#FFFFFF" width="5.8" height="5.8"/>
<rect x="73.2" fill="#FFFFFF" width="5.8" height="5.8"/>
<rect x="79" y="11.7" fill="#FFFFFF" width="5.8" height="5.8"/>
<rect x="70.3" y="29.3" fill="#FFFFFF" width="5.8" height="5.8"/>
<rect x="61.5" y="14.6" fill="#FFFFFF" width="5.9" height="5.8"/>
<rect x="52.7" y="29.3" fill="#FFFFFF" width="5.8" height="5.8"/>
<rect x="61.5" y="43.9" fill="#FFFFFF" width="5.9" height="5.8"/>
<rect x="46.8" y="46.8" fill="#FFFFFF" width="5.8" height="5.8"/>
<rect x="169.8" y="32.2" fill="#FFFFFF" width="5.9" height="5.8"/>
<rect x="158.1" y="43.9" fill="#FFFFFF" width="5.9" height="5.8"/>
<rect x="169.8" y="55.6" fill="#FFFFFF" width="5.9" height="5.8"/>
<rect x="163.9" y="73.2" fill="#FFFFFF" width="5.9" height="5.8"/>
<rect x="152.2" y="61.5" fill="#FFFFFF" width="5.9" height="5.9"/>
<rect x="149.3" y="79" fill="#FFFFFF" width="5.9" height="5.8"/>
<rect x="166.9" y="84.9" fill="#FFFFFF" width="5.9" height="5.8"/>
<rect x="158.1" y="96.6" fill="#FFFFFF" width="5.9" height="5.8"/>
</svg>
