<svg id="Layer_1" data-name="Layer 1" xmlns="http://www.w3.org/2000/svg" viewBox="0 0 112.84 72.5"><path id="bg" d="M5.78,58.91c30-16.83,77.78-13.59,101.58,0C154,85.54-24.22,75.74,5.78,58.91Z" transform="translate(-2.35 -2.9)" style="fill:#489245"/><path id="A" d="M17.58,68.11l-4.9-29.25c-.86-5.1-.22-9.52,1.89-13.15,2.31-4,6.13-6.49,11.33-7.36s9.52.27,13.05,3.35c3.18,2.74,5.23,6.69,6.08,11.74l4.9,29.25L42.43,64,39,43.35,21.64,46.26l3.45,20.59ZM29.29,25.45a12.85,12.85,0,0,0-2.16.2c-4.05.68-8.49,2.75-6.79,12.85l.09.54,17.34-2.91-.09-.54C36.28,27.26,32.74,25.45,29.29,25.45Z" transform="translate(-2.35 -2.9)" style="fill:#fff"/><path id="s" d="M61.79,49.9H59c-8,0-12.44-4.77-12.44-13.44V32.29h7.29v4.17c0,4.91,2.14,5.92,5.36,5.92h.94a16.94,16.94,0,0,0,6.28-1,4.35,4.35,0,0,0,3-4.58,4.92,4.92,0,0,0-2.19-4.19,30.84,30.84,0,0,0-6.09-2.94l-2.69-1.06c-4.09-1.65-6.82-3.07-8.34-4.34a11.6,11.6,0,0,1-4.18-9.4C45.94,10.38,48,2.9,61.72,2.9h3c8,0,12.41,4.73,12.41,13.32V20.4H69.87V16.23c0-5-2.16-6-5.4-6H61c-7.42,0-7.42,3-7.42,4.47a4.47,4.47,0,0,0,1.68,3.76,22.67,22.67,0,0,0,5.29,2.61l4.17,1.64c4,1.6,6.55,2.87,7.88,4a12.52,12.52,0,0,1,4.73,9.89c0,4.6-1.72,8.13-5.12,10.5A17.83,17.83,0,0,1,61.79,49.9Z" transform="translate(-2.35 -2.9)" style="fill:#fff"/><path id="p" d="M79.71,69.18l-7.37-1.89,10-38.85a7,7,0,0,1,4.36-5.07,8.2,8.2,0,0,1,5-.26l7.62,2a15,15,0,0,1,9.59,6.8,14.87,14.87,0,0,1,1.38,11.7h0a14.77,14.77,0,0,1-7.79,9.8c-3.46,1.8-7.74,2.06-12.72.79l-5.8-1.48Zm6.06-23.66,6.68,1.72a9,9,0,0,0,6.6-.41,7.36,7.36,0,0,0,3.66-5.1h0a8.13,8.13,0,0,0-.44-6.11,7.16,7.16,0,0,0-4.85-3.39l-7.65-1.95h-.09v0Z" transform="translate(-2.35 -2.9)" style="fill:#fff"/></svg>