<?xml version="1.0" encoding="utf-8"?>
<!-- Generator: Adobe Illustrator 24.1.2, SVG Export Plug-In . SVG Version: 6.00 Build 0)  -->
<svg version="1.1" id="Layer_1" xmlns="http://www.w3.org/2000/svg" xmlns:xlink="http://www.w3.org/1999/xlink" x="0px" y="0px"
	 viewBox="0 0 168.4 163.8" style="enable-background:new 0 0 168.4 163.8;" xml:space="preserve">
<path style="fill:#FFFFFF;" d="M1.1,158.8c-1.7,0-3.1-1.4-3.1-3.2c0-1.7,1.4-3.1,3.1-3.1h30.8c0.6-8.9-3.3-28.6-7.3-40.3
	c-2.6,0.9-4.9,2.4-6.8,4.4c-5.3,6.2-2.8,13.4-2.5,14.3c0.1,0.3,0.2,0.7,0.2,1l0,0.1c0,1.7-1.4,3.1-3.2,3.1h-0.2l-0.2,0
	c-1-0.2-1.9-0.9-2.4-1.8C8,130.9,0.4,117.6,3.9,107c1.6-4.8,5.1-8.1,10.5-10c2.2-0.8,4.4-1.3,6.5-1.3c4,0,7.9,1.5,11.6,4.6
	c2-14.3,3.1-30.4-15.2-51.2c-0.9-0.9-1-2.4-0.5-3.5c0.5-1.1,1.6-1.7,2.8-1.7c0.5,0,1,0.1,1.4,0.3c0.8,0.4,19.6,9.6,31.2,36.6
	c0.2,0.6,0.5,1.1,0.7,1.7c1.1-8.2,2-16.3,1.8-23.2c-0.4-9.3-2.1-18.6-5.2-27.5c-0.5-1.7,0.4-3.5,2-4c0.3-0.1,0.6-0.2,1-0.2
	c1.4,0,2.6,0.9,3,2.2c3.2,9.4,5,19.3,5.5,29.3c0.3,10.7-1.6,23.6-3.5,36.1l-0.1,0.5v0.3c0,0.1,0,0.3,0,0.4c2.5,9.7,4.2,20.4,5.3,30
	c0.1-1.8,0.2-3.5,0.3-5.1c1.2-12.9,3.1-23.4,9-35.6c0,0,0,0,0,0c0.6-9.5-0.1-19.1-1.8-28.5c-2.5-12.6-10.4-26-18-36.1
	c0.2,0.5,0.4,1,0.6,1.6c0.6,1.6-0.2,3.5-1.8,4.1c-0.4,0.1-0.8,0.2-1.1,0.2c-1.3,0-2.5-0.8-3-2c-2.6-6.6-5.7-13.1-9.4-19.1
	c-0.1-0.2-0.2-0.3-0.2-0.5c0-0.1-0.1-0.2-0.1-0.3c-0.1-0.4-0.2-0.8-0.1-1.2c0.1-0.9,0.5-1.7,1.2-2.3c0.3-0.2,0.6-0.4,0.9-0.5l0.1,0
	l0.2,0c0.2,0,0.4-0.1,0.6-0.1c0.2,0,0.4,0,0.6,0.1c0.2,0,0.5,0.1,0.8,0.2l0.1,0l0.1,0C47.4,4,71.2,29.6,76.4,55.7
	c1.1,5.7,1.7,11.5,2,17.3c2-3.8,3.9-7,5.3-9.5c8.6-14.9,10.8-41.2,10.8-41.5c0.1-1.2,0.8-2.3,1.9-2.7c0.4-0.2,0.8-0.2,1.2-0.2
	c1.3,0,2.4,0.8,2.9,1.9c0.8,1.8,7.6,18.4,7.7,33.5c0.1,12.1-2.3,20.6-4.5,28.8l-0.1,0.3c-1.5,5.4-3,10.6-3.5,16.5
	c0.2-0.3,0.4-0.5,0.6-0.8c8.9-12.5,13.8-29.7,13.8-29.9c0.3-1.3,1.4-2.2,2.8-2.3l0.1,0l0.2,0c1.2,0,2.4,0.7,2.9,1.9
	c0,0,2.1,4.8,2.7,14.4c0.2-0.3,0.3-0.7,0.5-1c8.9-19.1,7.5-38.7,7.2-42.5c0,0,0-0.1,0-0.1c-0.2-1.4,0.6-2.8,2-3.3
	c0.4-0.1,0.8-0.2,1.1-0.2c1.3,0,2.5,0.8,2.9,2c0.3,0.8,8.3,20.8,9.3,38.5l0,0.2c0,1.6-1.2,2.9-2.8,3.1c-0.1,0-0.3,0-0.4,0
	c0,0-0.1,0-0.1,0c0.8,0.1,1.6,0.4,2.1,1c0.6,0.6,0.9,1.4,0.8,2.3c-0.5,14.1-3.3,26.4-6,34.1c0.7-0.3,1.4-0.6,2.1-0.8l0.1,0l0.1,0
	c0.9-0.2,1.8-0.3,2.8-0.3c4.5,0,8.1,2.2,10.3,4.1c2.7,2.2,7.3,6.7,6.4,11.9c-0.2,1.5-1.5,2.7-3.1,2.7c-1.2,0-2.2-0.6-2.7-1.5
	c-0.6-0.4-2.3-1.3-6.5-1.3c-0.1,0-0.3,0-0.4,0c-1.3,1.1-2.5,2.4-3.6,3.8c-3,3.9-3.4,10.8-2.7,16.5h24.7c1.7,0,3.2,1.4,3.2,3.1
	c0,1.7-1.4,3.2-3.2,3.2H1.1z M86.3,152.6c-6.1-13.7-3.6-28,7.5-43.8c-0.7-10.6,1.6-18.8,3.8-26.7l0-0.1c2.2-7.9,4.5-16,4.4-27.3
	c0-6.3-1.5-13.2-2.9-18.6c-1.7,9.5-4.7,21.7-9.8,30.7c-4.7,8.1-8.4,15.1-11.6,21.5c-5.5,11.4-7.3,21.2-8.4,33.4
	c-0.8,8.5-0.1,19.4,1.9,30.9H86.3z M64.8,152.6C64.8,152.6,64.8,152.6,64.8,152.6L64.8,152.6z M58.5,152.6c-0.4-8.7-2-34.6-7.4-55.5
	c-1.2-4.8-2.8-9.4-4.6-13.9C43,75.2,38.9,68.9,34.8,64c7,15.2,5.2,27.9,3.6,39.5c-0.1,0.9-0.3,1.8-0.4,2.7c1.3,1.7,2.6,3.5,3.7,5.3
	c8.7,14,13.4,33.4,15,41.1H58.5z M115.2,152.6c-2.6-6.5-6.5-18-5.8-26.8c0.5-5.6,1.8-11.1,3.7-16.4c1.3-3.6,2.3-7.3,3-11.1
	c0-0.2,0.1-0.5,0.1-0.7c0.3-1.9,0.5-3.8,0.6-5.6c0.2-3.2,0.2-6.3-0.1-9.5c-2.5,6.2-6.1,14-10.9,20.7c-0.7,1-1.5,2.1-2.5,3.3
	c-6.8,8.6-20.7,26.5-10.1,46.1H115.2z M50.2,152.6c-1.7-7.8-6.2-25.4-13.9-37.8c-2.6-4.2-5.1-7.3-7.6-9.4
	c4.3,9.6,10.2,34.8,9.6,47.2H50.2z M136.1,152.5c-0.6-5.2-0.6-14.2,4-20.3c2.4-3.3,5.6-6.1,9.2-8.1c-1.3-0.8-2.9-1.4-4.6-1.4
	c-0.5,0-1,0-1.4,0.1c-4.8,1-15.8,14.6-15.8,29.7H136.1z M122.3,99.2c-0.8,4.1-1.9,8.2-3.2,12.1c-1.5,4.6-3,9-3.4,14.8
	c-0.6,7.7,3.3,18.9,5.6,24.5c0.5-10.6,5.2-20.1,10.1-26.1c0-0.2,0-0.5,0-0.7c0.3-2.3,0.8-4.5,1.6-6.6c2.8-6.9,5.9-19.5,6.3-34.1
	c0.1-1.7,1.5-3,3.2-3c0,0,0.1,0,0.1,0c-1.5-0.1-2.7-1.3-2.9-2.7l0-0.1c-0.3-6.2-1.6-12.7-3.1-18.6c-0.9,8-3,17.3-7.4,26.6
	C126.6,91,124.3,95.5,122.3,99.2z M13.9,104.1c-1.8,1-3.2,2.7-3.9,4.6c-0.9,2.7-0.7,5.9-0.1,8.9c0.8-1.9,1.9-3.6,3.3-5.2
	c2.6-2.8,5.7-4.8,9.1-6.1c-0.7-1.4-1.9-2.4-3.4-3c-0.5-0.1-1.1-0.2-1.6-0.2c-1.1,0-2.3,0.3-3.3,0.8L13.9,104.1z"/>
</svg>
