<?xml version="1.0" encoding="utf-8"?>
<!-- Generator: Adobe Illustrator 24.1.2, SVG Export Plug-In . SVG Version: 6.00 Build 0)  -->
<svg version="1.1" id="Layer_1" xmlns="http://www.w3.org/2000/svg" xmlns:xlink="http://www.w3.org/1999/xlink" x="0px" y="0px"
	 viewBox="0 0 151.5 181.1" enable-background="new 0 0 151.5 181.1" xml:space="preserve">
<path fill="#FFFFFF" d="M36.5,21.9l0.5,0c4.3,0,7.9-3.5,8-7.8c0.1-2.1-0.7-4.2-2.2-5.7c-1.5-1.5-3.5-2.4-5.7-2.5c-1.1,0-2,0.8-2.1,2
	C35,8.9,35.9,9.9,37,10c1,0,2,0.5,2.7,1.3c1.4,1.6,1.3,4.1-0.3,5.5c-0.7,0.6-1.6,1-2.6,1l-0.2,0c-1-0.1-2-0.5-2.7-1.3
	c-1.4-1.6-1.3-4,0.2-5.5l0.1-0.1c0.8-0.7,0.9-2,0.2-2.9c-0.4-0.5-1-0.7-1.6-0.7c-0.5,0-1,0.2-1.3,0.5c-1.6,1.4-2.6,3.3-2.8,5.5
	c-0.2,2.1,0.5,4.2,1.9,5.8C32.2,20.7,34.3,21.8,36.5,21.9z"/>
<path fill="#FFFFFF" d="M112.2,77.1c0.2,1,1,1.7,2,1.7c0.1,0,0.2,0,0.3,0c0.3,0,0.6-0.2,0.9-0.3c-0.1,0.1-0.2,0.2-0.2,0.3
	c-0.3,0.5-0.4,1-0.3,1.6c0.1,0.5,0.4,1,0.9,1.3c0.1,0.1,0.2,0.1,0.3,0.2c1.2,0.6,2.5,0.9,3.8,0.9c2.9,0,5.6-1.6,7-4.2
	c1-1.9,1.2-4,0.6-6.1c-0.6-2-2-3.7-3.9-4.8c-1.2-0.6-2.5-1-3.8-1c-2.9,0-5.6,1.6-7,4.2l-0.5,1.1l0.1,0
	C111.8,73.6,111.7,75.5,112.2,77.1z M115.8,78.2c0.1-0.1,0.1-0.1,0.2-0.2c0.3-0.4,0.5-1,0.4-1.5c0-0.2-0.1-0.4-0.2-0.6
	c-0.3-1-0.2-2,0.3-2.9c0.5-0.9,1.3-1.6,2.3-1.9c0.4-0.1,0.8-0.2,1.2-0.2c1.7,0,3.2,1.1,3.7,2.7c0.3,1,0.2,2-0.2,3s-1.3,1.6-2.3,1.9
	c-0.4,0.1-0.8,0.2-1.2,0.2c-0.7,0-1.3-0.2-1.8-0.4c-0.3-0.2-0.7-0.3-1.1-0.3C116.5,77.8,116.1,78,115.8,78.2z"/>
<path fill="#FFFFFF" d="M123.1,166.6l0,0.1c0.1,1.1,1,2,2.1,2H146c0.6,0,1.1-0.2,1.5-0.6c0.4-0.4,0.6-0.9,0.6-1.5
	c0-1.1-0.9-2.1-2.1-2.1h-20.8C124.1,164.6,123.2,165.5,123.1,166.6z"/>
<path fill="#FFFFFF" d="M71.1,90c1.1,1.7,3.1,2.7,5.2,2.7c0,0,0,0,0,0c4,0.1,7.3,2,9.9,5.6c1.1,1.5,2.8,2.5,4.7,2.6l0.6,0
	c0.2,0,0.3,0,0.5,0c2.9,0,5.7-1.1,7.9-3c2-2,2.5-5,1.4-7.5L86.7,57.2c-0.1-0.3-0.3-0.6-0.5-1c-2.5-4.8-7.5-7.8-13-7.8
	c-2.4,0-4.7,0.6-6.8,1.7l-10.7,5.7c-0.2,0.1-0.4,0.2-0.5,0.3c-2.7,1.9-3.4,5.6-1.6,8.3L71.1,90z M62.4,58.4l4.3,8.1
	c0.4,0.7,1.1,1.1,1.8,1.1h0c0.3,0,0.7-0.1,1-0.3c1-0.6,1.3-1.8,0.8-2.8l-4.3-8.1c-0.2-0.4-0.6-0.7-1-0.9l3.2-1.7
	c0.2-0.1,0.4-0.2,0.7-0.3c-0.7,0.5-1,1.4-0.7,2.3l3,8.1c0.3,0.8,1.1,1.4,1.9,1.4h0c0.2,0,0.5,0,0.7-0.1c0.5-0.2,1-0.5,1.2-1
	c0.2-0.5,0.3-1.1,0.1-1.5l0-0.1l0-0.1l-0.2-0.5l-2.9-7.6c-0.3-0.7-1.1-1.2-1.9-1.2c-0.1,0-0.1,0-0.2,0c1-0.3,2.1-0.5,3.2-0.5
	c0.5,0,1.1,0,1.6,0.1c-0.8,0.5-1.2,1.4-0.9,2.4l1.8,6.2c0.2,0.9,1,1.5,1.9,1.5h0c0.2,0,0.4,0,0.6-0.1c1-0.3,1.7-1.4,1.4-2.4v0
	l-1.9-6.3c0-0.1-0.1-0.2-0.1-0.3c2.3,1.1,4.1,2.9,5.2,5.3l14.5,33.2c0.4,1,0.2,2.1-0.4,2.8c-1.4,1.2-3.3,1.9-5.2,1.9
	c-0.3,0-0.5,0-0.8,0c-0.6,0-1.1-0.3-1.5-0.8c-4.6-6.3-10.1-7.3-13.1-7.3h-0.2l-0.1,0c-0.7,0-1.3-0.3-1.7-0.9L59.2,65.3l3.3,4.5
	c0.4,0.5,1,0.9,1.7,0.9l0,0c0.6,0,1.1-0.2,1.4-0.6c0.4-0.4,0.6-0.9,0.6-1.5c0-0.4-0.1-0.8-0.4-1.1l-5.4-7.5c-0.4-0.5-1-0.9-1.7-0.9
	c-0.1,0-0.3,0-0.4,0l3.9-2.1C62.1,57.5,62.2,57.9,62.4,58.4z"/>
<path fill="#FFFFFF" d="M102.5,145.2c1.2,0,2.3-0.2,3.5-0.7c4.2-1.7,6.4-6.1,5.4-10.3h0.1l-0.5-1.4c-0.3-0.8-0.8-1.6-1.3-2.3
	c-1.7-2.2-4.3-3.4-7-3.4c-2,0-4,0.7-5.6,2c-0.9,0.7-1,2-0.3,2.9c0.4,0.5,1,0.8,1.6,0.8c0.5,0,0.9-0.2,1.3-0.4c0.9-0.7,1.9-1,3-1
	c0.5,0,1,0.1,1.5,0.2c1.3,0.4,2.3,1.2,2.9,2.4c0.6,1.2,0.7,2.5,0.3,3.7c-0.6,2.1-2.5,3.5-4.7,3.5c-0.5,0-1-0.1-1.5-0.2
	c-2.6-0.8-4-3.5-3.2-6.1c0.3-1.1-0.3-2.2-1.4-2.6c-0.2-0.1-0.4-0.1-0.6-0.1c-0.9,0-1.7,0.6-2,1.4c-0.6,2-0.6,4.2,0.2,6.1
	C95.6,143,98.9,145.2,102.5,145.2z"/>
<path fill="#FFFFFF" d="M32.6,133.4c0-1.1-0.9-2.1-2.1-2.1h-9.4c-1.1,0-2.1,0.9-2.1,2.1c0,1.1,0.9,2.1,2.1,2.1h9.4
	C31.6,135.5,32.5,134.5,32.6,133.4z"/>
<path fill="#FFFFFF" d="M56,169.2H36.5c-1.1,0-2.1,0.9-2.1,2.1c0,1.1,0.9,2.1,2.1,2.1H56c1.1,0,2.1-0.9,2.1-2.1S57.1,169.2,56,169.2
	z"/>
<path fill="#FFFFFF" d="M21,36.4c1-0.6,1.3-1.9,0.6-2.9l-4.9-7.3l3.9-2.6l46.7,68.9l-3.9,2.6L25.9,39.9c-0.4-0.6-1-0.9-1.7-0.9
	c-0.4,0-0.8,0.1-1.2,0.4c-0.9,0.6-1.2,1.9-0.6,2.9l41.7,61.7l-1.1,0.9c-2.4,1.7-3,5-1.3,7.5l5.4,7.7c-0.1,0.2-0.3,0.4-0.4,0.6
	l-0.3,0.5c-0.2,0.4-0.4,0.8-0.6,1.2c-1.2,3.4,0.6,7.1,4,8.3c0.7,0.3,1.4,0.4,2.2,0.4h0c1,0,1.9-0.2,2.8-0.6c1.5-0.7,2.8-2.1,3.3-3.6
	c0,0,0.2-0.4,0.2-0.4c0.1-0.2,0.2-0.4,0.4-0.6c0.3-0.4,0.6-0.9,0.9-1.3c0.7-0.9,1.4-1.8,2-2.6c1.5-1.7,3.1-3.2,4.9-4.6
	c1-0.7,2-1.4,3-2c-0.1,0.4-0.1,0.9,0,1.3c0.2,0.7,0.7,1.3,1.3,1.6c0.5,0.3,1,0.6,1.3,1c0.4,0.4,0.6,0.9,0.8,1.5
	c0.2,0.5,0.2,1.1,0.2,1.7l0,0.1c-1.4,0.9-2.7,2.1-3.8,3.4c-0.9-0.3-1.8-0.6-2.7-0.7c-0.4,0-0.9-0.1-1.3-0.1c-0.9,0-1.9,0.1-2.8,0.4
	c-1.3,0.3-2.5,0.9-3.5,1.7c-0.9,0.6-1.2,1.7-1,2.8c0.2,0.7,0.6,1.2,1.2,1.5c0.4,0.2,0.8,0.3,1.3,0.3c0.3,0,0.5,0,0.8-0.1
	c0.4-0.1,0.9-0.2,1.3-0.2c0.1,0,0.2,0,0.3,0c0.6,0,1.1,0.2,1.6,0.4c0.5,0.3,0.9,0.6,1.4,1.1c-0.3,1.7-0.4,3.4-0.2,5.1
	c-0.8,0.4-1.6,0.9-2.4,1.4c-1.1,0.9-2,1.9-2.7,3.1c-0.7,1.1-1.1,2.4-1.3,3.7c-0.2,1.1,0.3,2.1,1.3,2.6c0.4,0.2,0.8,0.3,1.3,0.3
	c0.2,0,0.5,0,0.7-0.1c0.7-0.2,1.3-0.7,1.6-1.3c0.3-0.5,0.6-0.9,1.1-1.3c0.4-0.4,0.9-0.6,1.5-0.8c0.5-0.1,1-0.2,1.4-0.2l0.2,0
	c1,1.5,2.1,2.7,3.5,3.8c-0.3,0.9-0.6,1.8-0.7,2.7c-0.2,1.4-0.1,2.7,0.3,4.1c0.3,1.3,0.9,2.5,1.7,3.5c0.5,0.6,1.2,1,2,1.1
	c0.1,0,0.2,0,0.3,0c0.1,0,0.2,0,0.3,0l0.1,0l0.1,0c0.7-0.2,1.2-0.6,1.6-1.2c0.4-0.6,0.4-1.4,0.2-2c-0.1-0.6-0.2-1.1-0.2-1.7
	c0-0.6,0.2-1.1,0.4-1.6c0.3-0.5,0.6-0.9,1-1.3c1.1,0.2,2.2,0.3,3.3,0.4c0.6,0,1.2,0,1.8-0.1c0.4,0.8,0.9,1.6,1.4,2.4
	c1.7,2.1,4.1,3.5,6.8,4c0.1,0,0.2,0,0.2,0c0.1,0,0.1,0,0.2,0c0.9,0,1.7-0.5,2.2-1.3c0.3-0.6,0.4-1.3,0.2-2c-0.2-0.7-0.7-1.3-1.3-1.6
	c-0.5-0.3-0.9-0.6-1.3-1.1c-0.4-0.4-0.7-0.9-0.8-1.5c-0.2-0.5-0.2-1.1-0.2-1.7c0,0,0-0.1,0-0.1c1.4-0.9,2.6-2.1,3.6-3.4
	c0.9,0.3,1.8,0.6,2.7,0.7c0.4,0.1,0.9,0.1,1.3,0.1c0.9,0,1.9-0.1,2.8-0.4c1.3-0.3,2.5-0.9,3.5-1.6c0.8-0.6,1.2-1.6,1-2.6v0l0-0.1
	c-0.3-1.1-1.3-1.8-2.5-1.8c-0.3,0-0.5,0-0.7,0.1c-0.4,0.1-0.9,0.2-1.4,0.2c-0.1,0-0.2,0-0.3,0c-0.6,0-1.1-0.2-1.6-0.4
	c-0.5-0.3-0.9-0.6-1.3-1c0.3-1.7,0.4-3.4,0.2-5.1c0.8-0.4,1.6-0.9,2.4-1.4c1.1-0.9,2-1.9,2.7-3.1c0.7-1.1,1.1-2.4,1.3-3.7
	c0.2-1.1-0.3-2.1-1.3-2.7c-0.4-0.2-0.8-0.3-1.3-0.3c-0.2,0-0.5,0-0.7,0.1c-0.7,0.2-1.3,0.7-1.6,1.3c-0.3,0.5-0.7,0.9-1.1,1.3
	c-0.4,0.4-0.9,0.6-1.5,0.8c-0.5,0.1-0.9,0.2-1.4,0.2c-0.1,0-0.3,0-0.3,0c-1-1.5-2.1-2.7-3.5-3.8c0.3-0.9,0.5-1.8,0.7-2.7
	c0.2-1.4,0.1-2.7-0.3-4.1c-0.3-1.3-0.9-2.5-1.7-3.5c-0.5-0.7-1.3-1-2.1-1c-0.3,0-0.5,0-0.8,0.1c-1.4,0.4-2.1,1.9-1.7,3.2
	c0.1,0.6,0.2,1.1,0.2,1.7c0,0.6-0.2,1.1-0.5,1.6c-0.3,0.5-0.6,0.9-1,1.3c-1.1-0.2-2.2-0.3-3.3-0.3c-0.6,0-1.2,0-1.8,0.1
	c-0.4-0.8-0.9-1.6-1.4-2.4c-0.9-1.1-1.9-2-3.1-2.7c-0.9-0.6-2-1-3-1.2c1.8-0.8,3.7-1.5,5.7-1.9c2.3-0.5,4.6-0.8,6.9-1h1.3
	c0.3,0,0.5,0,0.8,0c0.3,0,0.5,0,0.8,0c0.2,0,0.5,0,0.8,0l1.8,0.1l1.9,0.2c5,0.6,9.9,1.8,14.6,3.6c0.3,0.1,0.7,0.2,1,0.2
	c1.2,0,2.2-0.6,2.7-1.7c0.4-0.7,0.4-1.6,0.2-2.3c-0.2-0.8-0.8-1.4-1.5-1.8c-5-2.5-10.2-4.5-15.6-5.7l-2.1-0.5l-2-0.3
	c-1-0.2-2-0.3-2.9-0.4l-1.4-0.1c-1-0.1-2-0.1-3-0.1c-1.9,0-3.8,0.1-5.8,0.3c-3,0.4-6,1.1-8.9,2.2c0,0-5-7.1-5-7.1
	c-1-1.4-2.7-2.3-4.4-2.3c-1.1,0-2.2,0.3-3.1,1l-1.1,0.8L72,92.3V92l-0.3-0.3L10.9,1.9c-1-1.4-2.5-2.5-4.2-2.8C6.3-0.9,5.9-1,5.5-1
	C2.4-1-0.3,1.2-0.9,4.3c-0.3,1.7,0,3.5,1,4.9l8.7,12.9c0,0.1,0.1,0.1,0.1,0.2l0,0.1l0,0c0.1,0.1,0.2,0.2,0.3,0.3l2.5,3.7
	c0,0.1,0.1,0.3,0.2,0.4l0.1,0.1c0.1,0.1,0.1,0.2,0.2,0.2l5.9,8.7c0.4,0.5,1,0.8,1.7,0.8C20.3,36.7,20.6,36.6,21,36.4z M91,131.2
	c2-4.6,6.5-7.6,11.6-7.6c1.7,0,3.4,0.3,5,1c6.4,2.8,9.3,10.2,6.6,16.6c-2,4.6-6.5,7.6-11.6,7.6c0,0,0,0,0,0c-1.7,0-3.4-0.3-5-1
	C91.2,145,88.3,137.6,91,131.2z M67.6,101.5l-2-3l3.9-2.6l1.9,2.9L67.6,101.5z M75.2,101.3h0.1l0.3-0.2c0.1-0.1,0.3-0.2,0.4-0.4
	l2.4-1.7c0.2-0.1,0.4-0.2,0.7-0.2c0.1,0,0.1,0,0.2,0c0.3,0.1,0.6,0.2,0.8,0.5l4.4,6.3c-1.4,0.6-2.7,1.3-4,2.1
	c-2.6,1.6-5,3.4-7.3,5.5c-1.1,1-2.1,2.1-3.2,3.3l-4.7-6.7c-0.2-0.3-0.3-0.6-0.2-0.9c0.1-0.3,0.2-0.6,0.5-0.8L75.2,101.3z M103,105.7
	L103,105.7c0.5,0,0.9,0,1.4,0c0.5,0,1,0,1.5,0l1.4,0.1c0.7,0.1,1.5,0.1,2.2,0.3c-0.3,0-0.6,0-0.9,0c-0.5,0-0.9,0-1.3,0l-1.4,0
	c-2.6,0.1-5.2,0.5-7.8,1c-5.1,1.2-9.7,3.4-13.8,6.5c-2,1.5-3.9,3.2-5.5,5.1c-0.8,0.9-1.6,1.9-2.3,2.9c-0.4,0.5-0.7,1-1,1.6
	c-0.2,0.3-0.3,0.5-0.5,0.8l-0.1,0.2c-0.2,0.3-0.3,0.6-0.4,0.8l0,0.1c-0.3,0.9-1.2,1.5-2.2,1.5c-0.3,0-0.6-0.1-0.8-0.2
	c-0.6-0.2-1.1-0.7-1.3-1.2c-0.3-0.6-0.3-1.2,0-1.8c0-0.1,0.1-0.3,0.2-0.4l0.3-0.4c0.3-0.4,0.4-0.7,0.7-1c0.2-0.3,0.4-0.6,0.6-0.9
	c0.4-0.6,0.9-1.1,1.3-1.6c1-1.1,2-2,2.9-3c2-1.9,4.2-3.5,6.6-5c4.7-2.8,9.8-4.6,15.3-5.3C99.5,105.8,101.3,105.7,103,105.7z
	 M17.6,19.1l0.7,1l-3.9,2.6l-0.7-1L17.6,19.1z M3.2,5c0.1-0.6,0.5-1.1,1-1.5c0.4-0.3,0.8-0.4,1.3-0.4c0.8,0,1.5,0.4,2,1.1l7.8,11.5
	l-3.9,2.6L3.5,6.8C3.2,6.3,3.1,5.7,3.2,5z"/>
<path fill="#FFFFFF" d="M109.3,169.2h-6.1c-1.1,0-2.1,0.9-2.1,2.1c0,0.6,0.2,1.1,0.6,1.5c0.4,0.4,0.9,0.6,1.5,0.6h6.1
	c1.1,0,2.1-0.9,2.1-2.1C111.4,170.1,110.5,169.2,109.3,169.2z"/>
<path fill="#FFFFFF" d="M151.9,169.8c-0.4-0.4-0.9-0.6-1.5-0.6h-36.2c-1.1,0-2,0.9-2.1,2l0,0.1c0,1.1,1,2,2.1,2h36.2
	c1.1,0,2.1-0.9,2.1-2.1C152.5,170.7,152.3,170.2,151.9,169.8z"/>
<path fill="#FFFFFF" d="M119.9,168.8c1.1,0,2-0.9,2-2.1c0-1.1-0.9-2.1-2.1-2.1l-20.5,0c-0.2,0-0.3,0-0.6,0.1l-0.3,0.1l-0.3,0.2
	c-0.1,0.1-0.2,0.2-0.3,0.3c-0.1,0.1-0.2,0.2-0.2,0.3c-0.1,0.1-0.1,0.2-0.2,0.4l-0.1,0.2v0.1c-0.1,0.5-0.7,3.2-1.4,6.3v-5.8
	c0-1.1-0.9-2.1-2.1-2.1l-11.4,0c-0.2,0-0.4,0-0.6,0.1l-0.3,0.1l-0.4,0.2l-0.3,0.3l-0.2,0.3l0,0.1c-0.1,0.1-0.1,0.2-0.1,0.4l0,0.1
	v0.1c-0.1,0.5-0.7,3.2-1.4,6.3v-5.9c0-1.1-0.9-2.1-2.1-2.1l-11.4,0c-0.2,0-0.3,0-0.6,0.1l-0.2,0.1l-0.1,0c-0.1,0.1-0.2,0.1-0.3,0.2
	c-0.1,0.1-0.2,0.2-0.3,0.3c-0.1,0.1-0.2,0.2-0.2,0.3c-0.1,0.1-0.2,0.3-0.2,0.5l0,0.1v0c-0.1,0.5-0.7,3.2-1.4,6.3v-5.9
	c0-1.1-0.9-2.1-2.1-2.1H43.9c-0.6,0-1.1,0.2-1.5,0.6c-0.4,0.4-0.6,0.9-0.6,1.5c0,1.1,0.9,2.1,2.1,2.1h14.6v9.8
	c0,1.9,1.6,3.5,3.5,3.5c1.6,0,3-1.1,3.4-2.7l2.3-10.6h7.6v9.8c0,1.9,1.6,3.5,3.5,3.5c1.6,0,3-1.1,3.4-2.7l2.3-10.6H92v9.8
	c0,1.9,1.5,3.5,3.4,3.5h0c1.6,0,3.1-1.2,3.4-2.8l2.3-10.6H119.9z"/>
<path fill="#FFFFFF" d="M36.8,135.5h9.4c1.1,0,2.1-0.9,2.1-2.1c0-1.1-0.9-2.1-2.1-2.1h-9.4c-1.1,0-2.1,0.9-2.1,2.1
	C34.8,134.5,35.7,135.4,36.8,135.5z"/>
<path fill="#FFFFFF" d="M35.7,146l0-9.4c0-1.1-0.9-2.1-2.1-2.1c-1.1,0-2.1,0.9-2.1,2.1v9.5c0,1.1,0.9,2.1,2.1,2.1h0
	C34.8,148.1,35.7,147.1,35.7,146z"/>
<path fill="#FFFFFF" d="M35.7,120.8c0-1.1-0.9-2.1-2.1-2.1c-1.1,0-2.1,0.9-2.1,2.1v9.4c0,1.1,0.9,2.1,2.1,2.1h0
	c1.1,0,2.1-0.9,2.1-2.1V120.8z"/>
</svg>
