<?xml version="1.0" encoding="utf-8"?>
<!-- Generator: Adobe Illustrator 24.1.2, SVG Export Plug-In . SVG Version: 6.00 Build 0)  -->
<svg version="1.1" id="Layer_1" xmlns="http://www.w3.org/2000/svg" xmlns:xlink="http://www.w3.org/1999/xlink" x="0px" y="0px"
	 viewBox="0 0 179.9 155.9" enable-background="new 0 0 179.9 155.9" xml:space="preserve">
<rect x="164.9" y="137.9" fill="#0a252c" width="6" height="6"/>
<rect x="51" y="149.9" fill="#0a252c" width="42" height="6"/>
<rect x="39" y="149.9" fill="#0a252c" width="6" height="6"/>
<path fill="#0a252c" d="M19.7,102.5l-5.9-1.2c-1,4.9-1.7,9-2,12.3l6,0.6C18.1,111.2,18.7,107.3,19.7,102.5z"/>
<path fill="#0a252c" d="M12.4,120.5c0.5,2.4,1.1,5.5,2,9.1l5.8-1.4c-0.8-3.5-1.5-6.4-1.9-8.8L12.4,120.5z"/>
<rect x="95.9" y="75" fill="#0a252c" width="27" height="6"/>
<rect x="128.9" y="75" fill="#0a252c" width="6" height="6"/>
<path fill="#0a252c" d="M167.9,30c-2.3,0-4.4,1.2-5.6,3.1l-9.8,24c-1.9-5.9-9.2-9.1-14.6-9.1h-4.8c-2.2-6.5-6.9-9-16.3-9
	c-1.1,0-1.9-1-3.5-3.4c-2.3-3.4-5.9-8.6-14.3-8.6c-9.7,0-12.5,5.6-14.6,9.6c-1.8,3.5-2.8,5.4-6.9,5.4c-4.2-0.2-8.2,2.2-10,6h-7.8
	c-1.4-0.1-2.8,0-4.3,0.1c5.3-14.5,10.1-28,13-36c1.5-4.8-1.2-9.8-6-11.2C58-0.6,53.3,1.7,51.5,5.9L22.1,86l-5.5-1.7
	C15.8,84.1,15,84,14.1,84c-4.4,0-8.2,2.9-9.3,7.2c-0.5,1.7-0.9,3.4-1.4,5C1.7,102.5,0,108.4,0,113.9c0,6.5,3.1,18,4.9,24H0v6h158.9
	v-6h-21v-28.8c1-0.8,1.7-1.9,2.2-3.1l12.3-33c0-0.1,0.1-0.2,0.1-0.3l15-36.7c0.1-0.1,0.3-0.1,0.4-0.1h12v-6L167.9,30z M137.9,54
	c3.6,0,9,2.5,9,6v3.2c-0.5-0.1-1.1-0.2-1.6-0.2h-10.4c0-3-0.2-6-0.5-9H137.9z M77.4,48c3.8,0,4.4,1.3,5.4,3.6c0.9,2,2.5,5.4,7.1,5.4
	h9v-6h-9c-0.7,0-0.8,0-1.7-1.9c-0.6-1.5-1.5-2.8-2.5-4c1.6-1.6,2.9-3.6,3.9-5.7c1.9-3.7,3.3-6.4,9.3-6.4c5.3,0,7.2,2.8,9.4,6
	c1.8,2.7,4.1,6,8.5,6c8.6,0,11.8,0,12.1,18H72v-9C72,53.7,72,48,77.4,48L77.4,48z M52.9,55c0,0,0.9-1.2,6.6-1H66v9H50
	C51,60.4,51.9,57.7,52.9,55L52.9,55z M73.5,137.9c-12.4,0-22.5-10-22.5-22.4c0-12.4,10-22.5,22.4-22.5c12.4,0,22.5,10,22.5,22.4
	c0,0,0,0,0,0C95.9,127.8,85.9,137.9,73.5,137.9z M44,79.4l5.2,14.9l-9.5-2.9L44,79.4z M6,113.9c0-4.6,1.5-10.2,3.2-16.2
	c0.5-1.7,0.9-3.4,1.4-5.1c0.5-1.9,2.5-3.1,4.4-2.6l5.1,1.6l-1.6,4.5l5.6,2.1L57.1,8c0.5-1.3,1.8-2.1,3.1-2c0.8,0.1,1.5,0.5,2,1.1
	c0.5,0.6,0.7,1.4,0.7,2.2c0,0.2-0.1,0.5-0.2,0.7c-4.3,12-13.1,36.4-20.9,57.7c-0.1,0.2-0.1,0.4-0.2,0.6c-7.5,20.7-14,38.4-14.1,38.8
	l5.6,2c0.1-0.2,1.8-4.8,4.4-12.1l11.5,3.6c-2.7,4.5-4.2,9.6-4.2,14.8c0,1.1,0.1,2.3,0.2,3.4l-4,7.9c-1.8,3.8-8.1,9-11.2,11.3H11.2
	C9.7,133,6,120.3,6,113.9z M39.5,137.9c2.8-2.6,5.8-5.7,7.1-8.6l1-1.9c1.9,4.1,4.8,7.8,8.4,10.6H39.5z M100.9,122.9h16
	c1.7,0,3,1.3,3,3v12h-29C95.8,134.1,99.3,128.9,100.9,122.9z M125.9,137.9v-12c0-5-4-9-9-9h-15c0-0.5,0-1,0-1.5c0-1.5-0.1-3-0.4-4.5
	h30.4v27H125.9z M146.8,70.9l-12.4,33c-0.3,0.6-0.9,1-1.5,1h-33c-5.8-14.6-22.3-21.8-36.9-16c-2.8,1.1-5.4,2.7-7.8,4.6l-7.8-22.6
	c-0.1-0.2-0.1-0.3-0.1-0.5c0.1-0.9,0.8-1.5,1.6-1.5h96.3c0.9,0,1.6,0.6,1.6,1.5C146.9,70.6,146.9,70.8,146.8,70.9L146.8,70.9z"/>
<rect x="95.9" fill="#0a252c" width="6" height="15"/>
<rect x="109" y="13.5" transform="matrix(0.5576 -0.8301 0.8301 0.5576 37.992 104.3334)" fill="#0a252c" width="15.8" height="6"/>
<rect x="78" y="8.5" transform="matrix(0.8233 -0.5676 0.5676 0.8233 4.9453 48.8604)" fill="#0a252c" width="6" height="16"/>
<rect x="95.9" y="39" fill="#0a252c" width="6" height="6"/>
<rect x="104.9" y="51" fill="#0a252c" width="6" height="6"/>
<path fill="#0a252c" d="M73.5,101.9c-7.5,0-13.5,6-13.5,13.5s6,13.5,13.5,13.5c7.4,0,13.5-6,13.5-13.5C87,108,80.9,101.9,73.5,101.9
	z M73.5,122.9c-4.1,0-7.5-3.4-7.5-7.5s3.4-7.5,7.5-7.5s7.5,3.4,7.5,7.5C81,119.6,77.6,122.9,73.5,122.9z"/>
</svg>
