<?xml version="1.0" encoding="utf-8"?>
<!-- Generator: Adobe Illustrator 24.1.2, SVG Export Plug-In . SVG Version: 6.00 Build 0)  -->
<svg version="1.1" id="Layer_1" xmlns="http://www.w3.org/2000/svg" xmlns:xlink="http://www.w3.org/1999/xlink" x="0px" y="0px"
	 viewBox="0 0 172 155.4" enable-background="new 0 0 172 155.4" xml:space="preserve">
<path fill="#0a252c" d="M15,136.9l-4.3,3.7c1.3,1.5,2.7,2.9,4.2,4.1l3.8-4.3C17.3,139.4,16.1,138.2,15,136.9z"/>
<path fill="#0a252c" d="M36.5,81.6C22.8,85.2,14.5,99.3,18,113.1c1.9,7.2,6.8,13.3,13.5,16.6V141h5.7v-15.1l-1.8-0.7
	c-10.3-4.2-15.2-15.9-11.1-26.1c1.9-4.7,5.5-8.5,10-10.6v18.2h17.2V88.5c10,4.7,14.3,16.7,9.5,26.7c-2.2,4.5-5.9,8.1-10.6,10
	l-1.8,0.7V141h5.7v-11.3c12.8-6.3,18-21.8,11.6-34.6c-3.3-6.7-9.4-11.6-16.6-13.5l-3.6-0.9v20.2h-5.8V80.7L36.5,81.6z"/>
<path fill="#0a252c" d="M163.4,118.1c4.7,0,8.6-3.9,8.6-8.6v-9.6c0-3.8-1.5-7.5-4.2-10.1l-10.5-10.5c-2.7-2.7-6.3-4.2-10.1-4.2
	h-12.5v-8.6h5.7V55c0-4.7-3.9-8.6-8.6-8.6h-20.1c-4.7,0-8.6,3.9-8.6,8.6v11.5h5.7v8.6h-1.9L84.3,57.4c-1.7-1.3-3.7-2.1-5.8-2.3
	l-25-48.4L30.2,0l-1.6,5.5l21,6.1L72.1,55h-3.3c-6.3,0-11.5,5.1-11.5,11.5v5.3c-22.4-7.9-47,3.8-54.9,26.1
	c-4.1,11.6-3.1,24.4,2.9,35.2l5-2.8c-9.9-18-3.4-40.6,14.6-50.6s40.6-3.4,50.6,14.6S78.9,135,60.9,145c-11.1,6.2-24.7,6.2-35.8,0.1
	l-2.8,5c20.8,11.4,47,3.7,58.4-17.1c0.7-1.2,1.3-2.5,1.8-3.8c8.4,1.8,16.8-3,19.6-11.1h24.9c0.7,2.1,1.9,4.1,3.4,5.7h-24.4v5.7H172
	v-5.7h-15.9c1.5-1.7,2.7-3.6,3.4-5.7L163.4,118.1z M108.9,55c0-1.6,1.3-2.9,2.9-2.9h20.1c1.6,0,2.9,1.3,2.9,2.9l0,0v5.7h-25.8
	L108.9,55z M114.7,66.5H129v8.6h-14.3V66.5z M86,123.8c-0.5,0-1,0-1.5-0.1c2-7.4,2-15.3,0-22.7c0.5-0.1,1-0.1,1.5-0.1
	c6.3-0.2,11.6,4.8,11.8,11.1c0.2,6.3-4.8,11.6-11.1,11.8C86.5,123.8,86.2,123.8,86,123.8z M103.2,112.3c0-9.5-7.7-17.2-17.2-17.2
	c-1.2,0-2.3,0.1-3.5,0.3C78.7,86.4,71.8,79,63.1,74.3v-7.9c0-3.2,2.6-5.7,5.7-5.7h8.5c1.3,0,2.5,0.4,3.5,1.2l24.3,18.9h42.1
	c2.3,0,4.5,0.9,6.1,2.5l10.5,10.5c1.6,1.6,2.5,3.8,2.5,6.1v9.6c0,1.6-1.3,2.9-2.9,2.9h-2.9c0-9.5-7.7-17.2-17.2-17.2
	c-9.5,0-17.2,7.7-17.2,17.2l0,0L103.2,112.3z M131.9,112.3c0-6.3,5.1-11.5,11.5-11.5s11.5,5.1,11.5,11.5c0,6.3-5.1,11.5-11.5,11.5
	c0,0,0,0,0,0C137,123.8,131.9,118.7,131.9,112.3L131.9,112.3z"/>
<rect x="143.3" y="135.3" fill="#0a252c" width="5.7" height="5.7"/>
<rect x="154.8" y="135.3" fill="#0a252c" width="5.7" height="5.7"/>
<rect x="131.9" y="135.3" fill="#0a252c" width="5.7" height="5.7"/>
<rect x="80.3" y="25.6" transform="matrix(0.7071 -0.7071 0.7071 0.7071 1.6647 68.1822)" fill="#0a252c" width="5.7" height="12.9"/>
<rect x="97.6" y="14.6" transform="matrix(0.8226 -0.5686 0.5686 0.8226 5.2928 61.0551)" fill="#0a252c" width="5.7" height="14.8"/>
<rect x="151.2" y="29.2" transform="matrix(0.7071 -0.7071 0.7071 0.7071 23.4967 120.8881)" fill="#0a252c" width="12.9" height="5.7"/>
<rect x="132.9" y="19.2" transform="matrix(0.5687 -0.8225 0.8225 0.5687 42.3614 124.9072)" fill="#0a252c" width="14.8" height="5.7"/>
<rect x="117.5" y="12" fill="#0a252c" width="5.7" height="14.3"/>
</svg>
