<?xml version="1.0" encoding="utf-8"?>
<!-- Generator: Adobe Illustrator 24.1.2, SVG Export Plug-In . SVG Version: 6.00 Build 0)  -->
<svg version="1.1" id="Layer_1" xmlns="http://www.w3.org/2000/svg" xmlns:xlink="http://www.w3.org/1999/xlink" x="0px" y="0px"
	 viewBox="0 0 162 102.6" enable-background="new 0 0 162 102.6" xml:space="preserve">
<circle fill="#FFFFFF" cx="21.6" cy="83.7" r="5.4"/>
<ellipse transform="matrix(0.3827 -0.9239 0.9239 0.3827 -19.8208 143.1449)" fill="#FFFFFF" cx="97.2" cy="86.4" rx="5.4" ry="5.4"/>
<path fill="#FFFFFF" d="M158.4,78.4c-2.7,1-5.1,2.6-7.1,4.7c-3.1-4.2-7.3-7.5-12.2-9.5l-5-2l1.3,5.2c1.4,5.8,2.1,11.7,2.1,17.7v2.7
	h-28.4c4-4.4,5.2-10.6,3.2-16.2h9c4.5,0,8.1-3.6,8.1-8.1c0,0,0,0,0,0V40.8c0-4.6-2.9-8.6-7.2-10.2L91.1,19.5c-1.9-0.7-4-0.7-5.9-0.2
	L78,12.2l6.4-6.5l-3.8-3.8L64,18.6l3.8,3.8l6.4-6.4l6.3,6.3c-1.5,1.7-2.3,3.9-2.3,6.2v30.9h-9.1l-7.6-16.5c4.3-1.2,6.8-5.6,5.7-9.9
	c-1-3.5-4.2-6-7.8-5.9H43.8L37.5,5.8c-1.3-4.3-5.8-6.7-10.1-5.4s-6.7,5.8-5.4,10.1l8.1,27l0.2,0.4h-14c-4.5,0-8.1,3.6-8.1,8.1v24.6
	c-7.3,7.4-7.2,19.4,0.2,26.6c0,0,0,0,0.1,0.1H0v5.4h162V77.3L158.4,78.4z M86.4,86.4c0-6,4.8-10.8,10.8-10.8S108,80.5,108,86.4
	s-4.8,10.8-10.8,10.8C91.3,97.3,86.4,92.4,86.4,86.4C86.4,86.4,86.4,86.4,86.4,86.4L86.4,86.4z M124.3,54h-10.3l-3.2-8.1h13.5
	L124.3,54z M35.2,35.8l-8.1-27C27,8.6,27,8.3,27,8.1c0-1.5,1.2-2.7,2.7-2.7c1.2,0,2.3,0.8,2.6,1.9l7.5,25.1h19.6
	c1.5,0,2.7,1.2,2.7,2.7c0,1.5-1.2,2.7-2.7,2.7H37.8C36.6,37.8,35.6,37,35.2,35.8z M16.2,43.2h39.6l8.6,18.5c0.9,1.9,2.8,3.2,4.9,3.2
	h9.1c3,0,5.4-2.4,5.4-5.4l0,0V28.5c0-2.3,1.9-4.2,4.2-4.2c0.5,0,1,0.1,1.4,0.2l31.3,11.2c2,0.7,3.4,2.6,3.6,4.8h-13.5
	c-3,0-5.4,2.4-5.4,5.4c0,0.7,0.1,1.4,0.4,2l3.2,8.1c0.8,2,2.8,3.4,5,3.4h10.3v13.5c0,1.5-1.2,2.7-2.7,2.7h-12.3
	c-5.9-6.6-16.1-7.2-22.8-1.3c-0.5,0.4-0.9,0.9-1.3,1.3H38.7c-4.4-9.4-15.6-13.5-25-9.1c0,0-0.1,0-0.1,0.1V54h18.9v-5.4H13.5v-2.7
	C13.5,44.4,14.7,43.2,16.2,43.2L16.2,43.2z M51.3,81h18.9v5.4H51.3L51.3,81z M8.1,83.7c0-7.5,6-13.5,13.5-13.5s13.5,6,13.5,13.5
	s-6,13.5-13.5,13.5C14.2,97.2,8.1,91.1,8.1,83.7L8.1,83.7z M40.5,83.7c0-0.9-0.1-1.8-0.2-2.7h5.6v10.9h29.7V81H82
	c-0.6,1.7-1,3.6-1,5.4c0,4,1.5,7.8,4.2,10.8H34.8C38.4,93.7,40.5,88.8,40.5,83.7L40.5,83.7z M156.6,94.5v2.7h-13.5v-2.7
	c0-4.4-0.4-8.8-1.1-13.2c2.8,2,5.1,4.7,6.8,7.7l2.2,5l2.6-4.8c0.7-1.4,1.8-2.6,3-3.6L156.6,94.5L156.6,94.5z"/>
</svg>
