<?xml version="1.0" encoding="utf-8"?>
<!-- Generator: Adobe Illustrator 24.1.2, SVG Export Plug-In . SVG Version: 6.00 Build 0)  -->
<svg version="1.1" id="Layer_1" xmlns="http://www.w3.org/2000/svg" xmlns:xlink="http://www.w3.org/1999/xlink" x="0px" y="0px"
	 viewBox="0 0 168.7 139.9" style="enable-background:new 0 0 168.7 139.9;" xml:space="preserve">
<style type="text/css">
	.st0{fill:#0a252c;}
</style>
<ellipse class="st0" cx="22.5" cy="118.3" rx="5.6" ry="6.2"/>
<ellipse class="st0" cx="101.2" cy="121.4" rx="5.6" ry="6.2"/>
<path class="st0" d="M164.9,112.3c-2.8,1.1-5.3,3-7.4,5.4c-3.2-4.8-7.6-8.6-12.7-10.9l-5.2-2.3l1.4,5.9c1.5,6.6,2.2,13.4,2.2,20.2
	v3.1h-29.6c4.2-5,5.4-12.1,3.3-18.5h9.4c4.7,0,8.4-4.1,8.4-9.3l0,0V69.3c0-5.3-3-9.8-7.5-11.7L94.8,44.9c-2-0.8-4.2-0.8-6.1-0.2
	l-7.5-8.1l6.7-7.4l-4-4.3L66.6,43.9l4,4.3l6.7-7.3l6.6,7.2c-1.6,1.9-2.4,4.5-2.4,7.1v35.3h-9.5L64,71.7c4.5-1.4,7.1-6.4,5.9-11.3
	c-1-4-4.4-6.9-8.1-6.7H45.6L39,29.2c-1.4-4.9-6-7.7-10.5-6.2s-7,6.6-5.6,11.5l8.4,30.9l0.2,0.5H17c-4.7,0-8.4,4.1-8.4,9.3v28.1
	c-7.6,8.5-7.5,22.2,0.2,30.4c0,0,0,0,0.1,0.1H0v6.2h168.7v-29L164.9,112.3z M90,121.4c0-6.9,5-12.3,11.2-12.3s11.2,5.6,11.2,12.3
	s-5,12.3-11.2,12.3C95.1,133.9,90,128.3,90,121.4L90,121.4L90,121.4z M129.4,84.4h-10.7l-3.3-9.3h14.1V84.4z M36.6,63.5l-8.4-30.9
	c-0.1-0.2-0.1-0.6-0.1-0.8c0-1.7,1.2-3.1,2.8-3.1c1.2,0,2.4,0.9,2.7,2.2l7.8,28.7h20.4c1.6,0,2.8,1.4,2.8,3.1c0,1.7-1.2,3.1-2.8,3.1
	H39.4C38.1,65.8,37.1,64.9,36.6,63.5z M16.9,72h41.2l9,21.2c0.9,2.2,2.9,3.7,5.1,3.7h9.5c3.1,0,5.6-2.7,5.6-6.2l0,0V55.2
	c0-2.6,2-4.8,4.4-4.8c0.5,0,1,0.1,1.5,0.2l32.6,12.8c2.1,0.8,3.5,3,3.7,5.5h-14.1c-3.1,0-5.6,2.7-5.6,6.2c0,0.8,0.1,1.6,0.4,2.3
	l3.3,9.3c0.8,2.3,2.9,3.9,5.2,3.9h10.7V106c0,1.7-1.2,3.1-2.8,3.1h-12.8c-6.1-7.5-16.8-8.2-23.7-1.5c-0.5,0.5-0.9,1-1.4,1.5H40.3
	c-4.6-10.7-16.2-15.4-26-10.4c0,0-0.1,0-0.1,0.1V84.4h19.7v-6.2H14.1v-3.1C14.1,73.4,15.3,72,16.9,72L16.9,72z M53.4,115.2h19.7v6.2
	H53.4V115.2z M8.4,118.3c0-8.6,6.2-15.4,14.1-15.4s14.1,6.9,14.1,15.4s-6.2,15.4-14.1,15.4C14.8,133.7,8.4,126.8,8.4,118.3
	L8.4,118.3z M42.2,118.3c0-1-0.1-2.1-0.2-3.1h5.8v12.5h30.9v-12.5h6.7c-0.6,1.9-1,4.1-1,6.2c0,4.6,1.6,8.9,4.4,12.3H36.2
	C40,129.7,42.2,124.1,42.2,118.3L42.2,118.3z M163,130.7v3.1H149v-3.1c0-5-0.4-10.1-1.1-15.1c2.9,2.3,5.3,5.4,7.1,8.8l2.3,5.7
	l2.7-5.5c0.7-1.6,1.9-3,3.1-4.1V130.7L163,130.7z"/>
</svg>
