<?xml version="1.0" encoding="utf-8"?>
<!-- Generator: Adobe Illustrator 24.1.2, SVG Export Plug-In . SVG Version: 6.00 Build 0)  -->
<svg version="1.1" id="Layer_1" xmlns="http://www.w3.org/2000/svg" xmlns:xlink="http://www.w3.org/1999/xlink" x="0px" y="0px"
	 viewBox="0 0 184 92.5" enable-background="new 0 0 184 92.5" xml:space="preserve">
<path fill="#FFFFFF" d="M115.4,40.8c2.6,0,5.1,0.4,7.6,1.2c2,0.7,4,1.6,5.8,2.8c1.4,0.8,2.9,1.2,4.5,1.2c0.3,0,0.6,0,0.9,0
	c1.1,0,2.5-0.1,3.3-1.1c0.9-1,0.9-2.3,0.8-3.4c-0.3-3.3-0.6-6.5-1-9.7c-0.7-6.3-3.8-10.4-9.4-12.1c-2.4-0.7-4.9-1.6-7.2-2.5
	c-4.9-1.8-9.9-3.6-15.3-4.3c-1-0.1-1.3-0.5-1.7-1.7c-0.4-1.4-0.8-2.7-1.2-4c-0.4-1.4-0.9-2.9-1.3-4.4C101,0.6,99.1-1,97-1
	c-0.2,0-0.3,0-0.6,0c-1.1,0-2.2,0-3.3,0c-1.1,0-2.2,0-3.4,0c-1,0-2.1,0-3.1,0c-0.1,0-0.1,0-0.2,0c-0.1,0-0.3,0-0.4,0
	c-0.4,0-0.8,0-1.3,0.1c-0.6,0.1-1.8,0.5-2.4,1.5c-0.3,0.6-0.4,1.2-0.2,1.9l0,0.1l0,0.1c0.5,1.1,1.4,2.1,2.5,2.6l0.1,0l0.1,0
	c0.6,0.2,1.2,0.3,1.8,0.3c0.3,0,0.6,0,0.9-0.1h8l1.9,6.5l-2.9,0.5c-2.5,0.4-4.9,0.8-7.1,1.2c-2.4,0.2-4.4,1.9-5.2,4.2
	c-0.2,0.8-0.6,0.9-1.2,0.9c-0.1,0-0.3,0-0.5,0c-1.9-0.2-3.7-0.4-5.6-0.5L73,18.2l-36.3-3c-0.3,0-0.6-0.1-0.9-0.1
	c-3.3,0-6.2,2.5-6.6,5.8c0,0.2,0,0.4-0.1,0.6C29.1,22,29,22.4,29,22.9l-2.9-0.6c-0.7-0.1-1.4-0.3-2.1-0.4c-4-0.8-8.1-1.7-12.3-1.7
	c-0.7,0-1.3,0-2,0.1c-3.9,0.3-5.8,2.1-5.9,5.9c-0.1,3.1-0.1,6.3,0,8.9c0,3.2,0.9,4.1,4.3,4.4l7.1,0.6c4.9,0.4,9.8,0.8,14.7,1.2
	c12.5,1.1,21.3,10.7,21.4,23.3v3.9c0,5,0.7,5.8,5.7,5.8h22.8c5.9,0,9.2-2.8,10.2-8.8c0.4-2.5,0.9-5,1.7-7.3
	C95,47.7,104.5,40.8,115.4,40.8z M83.8,63.1c-0.1,1-0.3,2-0.7,3c-0.5,0.8-1.4,1.5-1.7,1.5c-4.8,0.1-9.6,0.1-13.5,0.1l-10.1,0v-3.9
	c-0.2-15-11.6-27.4-26.6-28.8l-19.9-1.7c-0.3,0-0.6,0-0.9-0.1v-6.7c2.5,0.1,4.9,0.3,7.3,0.6c15.2,3,30.6,6.2,45.5,9.3l9.9,2
	c1,0.2,1.8,0.3,2.4,0.3c2.7,0,4.1-1.6,5.3-4.1l1.7-3.5c1.6-3.2,3.2-6.5,4.8-9.8c0.4-0.9,1.2-1.5,2.2-1.7c2.8-0.7,5.7-1.1,8.7-1.1
	c4.6,0,9.5,0.9,15,2.6c1.9,0.6,3.8,1.3,5.7,2c2.1,0.7,4.2,1.5,6.3,2.2c3.6,1.1,5.3,3.3,5.6,6.8c0.1,1.9,0.3,3.8,0.5,5.8l0.1,0.7
	l-0.8-0.4c-5.5-2.6-10.8-3.9-15.9-3.9c-5.8,0-11.4,1.7-16.7,5.1C90.3,44.6,85.5,52.6,83.8,63.1z M77.6,26.8
	c-0.9,1.8-1.8,3.6-2.7,5.5l-39.4-8.1l0,0c-0.1-0.6-0.1-1.1-0.1-1.6c0-0.4,0.1-0.7,0.2-0.9c0.2-0.2,0.5-0.2,0.8-0.2l0.1,0l6.8,0.6
	l34,2.8c0.4,0,0.7,0.1,1.2,0.2L77.6,26.8z"/>
<path fill="#FFFFFF" d="M181.6,71.9c-0.4-0.1-0.7-0.2-1.1-0.3c-0.3-0.1-0.6-0.1-0.9-0.2c-5.6-1.7-8.9-5.1-10.3-10.6
	c-0.9-3.7-0.4-7.5,1.7-11.9c1.1-2.1,2.5-4.1,4-6c1.1-1.6,2.3-3.6,0.7-6c-0.9-1.3-2.2-2-3.8-2c-0.6,0-1.3,0.1-2.1,0.3
	c-0.4,0.1-0.8,0.3-1.2,0.4c-0.2,0.1-4.7,1.7-6.8,2.5c-4.1,1.5-8.3,3-12.4,4.5l-2.6,1c-4.3,1.6-8.7,3.2-12.9,5.1l-0.1,0l-0.1,0
	c-0.4,0.2-0.8,0.3-1.2,0.3c-0.6,0-1.1-0.2-1.6-0.6c-4.2-3.1-9.3-4.8-14.6-4.8c-3.1,0-6.1,0.6-8.9,1.7c-12.9,5-19.3,19.5-14.3,32.3
	c3.6,9.4,12.4,15.7,22.5,16c0.2,0,0.3,0,0.5,0c5.7,0,11.2-1.9,15.7-5.3c0.6,0.3,1.2,0.6,1.8,1c1.7,0.9,3.3,1.8,4.9,2.5
	c2.2,1,4.6,1.5,7.1,1.5c0,0,0,0,0,0c2.3,0,4.5-0.5,6.6-1.3c4.5-1.9,9.2-3.5,13.7-5.1c1.8-0.6,3.6-1.3,5.4-1.9
	c1.9-0.7,3.7-1.4,5.6-2.1c1.7-0.6,3.3-1.2,4.9-1.8c2-0.6,3.4-2.6,3.2-4.7C185,74.2,183.6,72.4,181.6,71.9z M165.5,80.1
	c-1.8,0.7-3.6,1.3-5.5,2c-3.6,1.3-7.3,2.6-11,4c-1.1,0.4-2.3,0.6-3.5,0.6c-0.9,0-1.7-0.1-2.6-0.4c-5.8-1.4-10.3-5.4-12.4-10.7
	c-2.2-5.6-1.6-12.1,1.7-17.3c1.3-2.2,3.4-3.9,5.8-4.8c9.1-3.4,18.4-6.8,27.3-10l1.2-0.4c-3.8,6.7-5,12.7-3.7,18.8
	c1.4,6.6,5.5,11.5,12.1,14.7c-1.3,0.5-6.7,2.5-8.2,3v0L165.5,80.1z M116.3,87.2c-5,0-9.6-1.9-13.1-5.3c-3.6-3.4-5.6-8-5.7-13
	c-0.1-4.9,1.7-9.6,5.1-13.2c0.2-0.2,0.3-0.4,0.5-0.5c3.5-3.4,8.1-5.2,13-5.2c4.4,0,8.6,1.5,11,3.9l-2.9,5.6c-3.1-2-6.1-3-8.9-3
	c-3.2,0-6,1.3-8.3,3.9c-4.2,4.6-4.3,11.5-0.2,16.2c2.4,2.7,5.2,4.1,8.5,4.1c2.7,0,5.7-1,8.8-2.9l3,5.5
	C124.6,85.7,120.6,87.2,116.3,87.2z M116.2,74.2l-0.1,0c-3.2-0.1-5.7-2.7-5.6-5.8c0.1-3.1,2.6-5.6,5.7-5.6l0.1,0
	c3.2,0.1,5.7,2.7,5.6,5.8C121.9,71.7,119.3,74.2,116.2,74.2z"/>
<path fill="#FFFFFF" d="M24.3,43.5l-0.2,0c-13.7,0-24.9,11.1-25,24.8c0,6.7,2.5,13,7.2,17.7c4.7,4.8,11,7.4,17.6,7.4
	c0,0,0.2,0,0.2,0c13.7,0,24.9-11.1,25-24.8C49.2,54.9,38.1,43.6,24.3,43.5z M5.6,68.4C5.7,58.3,14,50,24.1,50l0.2,0
	c10.2,0.1,18.4,8.5,18.4,18.6c-0.2,10-8.2,18.2-18.1,18.5l-0.6,0C13.7,87.1,5.5,78.6,5.6,68.4z"/>
<path fill="#FFFFFF" d="M36.2,68.7c0-3.2-1.2-6.3-3.5-8.6s-5.3-3.6-8.5-3.7l-0.3,0c-6.5,0-11.9,5.3-12,11.9l0,0.1
	c-0.1,6.7,5.3,12.2,12,12.3c0,0,0.1,0,0.1,0C30.7,80.7,36.1,75.3,36.2,68.7z M29.8,68.4c0,1.5-0.5,3-1.5,4.1c-1,1.1-2.4,1.7-3.9,1.8
	l0,1l-0.1-1l-0.2,0c-3.1,0-5.7-2.5-5.8-5.6c0-3.2,2.5-5.8,5.6-5.9l0.1-1c0,0,0,0,0,0v1C27.1,62.8,29.7,65.3,29.8,68.4z"/>
</svg>
