<?xml version="1.0" encoding="utf-8"?>
<!-- Generator: Adobe Illustrator 24.1.2, SVG Export Plug-In . SVG Version: 6.00 Build 0)  -->
<svg version="1.1" id="Layer_1" xmlns="http://www.w3.org/2000/svg" xmlns:xlink="http://www.w3.org/1999/xlink" x="0px" y="0px"
	 viewBox="0 0 210.7 161.2" style="enable-background:new 0 0 210.7 161.2;" xml:space="preserve">
<style type="text/css">
	.st0{fill:#FFFFFF;}
</style>
<path class="st0" d="M132.9,80.5c3,0,5.9,0.6,8.7,1.9c2.3,1.1,4.6,2.5,6.7,4.3c1.6,1.2,3.3,1.9,5.2,1.9c0.3,0,0.7,0,1,0
	c1.3,0,2.9-0.2,3.8-1.7c1-1.5,1-3.6,0.9-5.3c-0.3-5.1-0.7-10.1-1.2-15c-0.8-9.8-4.4-16.1-10.8-18.8c-2.8-1.1-5.6-2.5-8.3-3.9
	c-5.6-2.8-11.4-5.6-17.6-6.7c-1.2-0.2-1.5-0.8-2-2.6c-0.5-2.2-0.9-4.2-1.4-6.2c-0.5-2.2-1-4.5-1.5-6.8c-0.2-3.4-2.4-5.9-4.8-5.9
	c-0.2,0-0.3,0-0.7,0c-1.3,0-2.5,0-3.8,0c-1.3,0-2.5,0-3.9,0c-1.2,0-2.4,0-3.6,0c-0.1,0-0.1,0-0.2,0s-0.3,0-0.5,0
	c-0.5,0-0.9,0-1.5,0.2c-0.7,0.2-2.1,0.8-2.8,2.3c-0.3,0.9-0.5,1.9-0.2,2.9v0.2v0.2c0.6,1.7,1.6,3.3,2.9,4h0.1h0.1
	c0.7,0.3,1.4,0.5,2.1,0.5c0.3,0,0.7,0,1-0.2h9.2l2.2,10.1l-3.3,0.8c-2.9,0.6-5.6,1.2-8.2,1.9c-2.8,0.3-5.1,2.9-6,6.5
	c-0.2,1.2-0.7,1.4-1.4,1.4c-0.1,0-0.3,0-0.6,0c-2.2-0.3-4.3-0.6-6.4-0.8l-2.2-0.2l-41.8-4.6c-0.3,0-0.7-0.2-1-0.2
	c-3.8,0-7.1,3.9-7.6,9c0,0.3,0,0.6-0.1,0.9c0,0.8-0.1,1.4-0.1,2.2l-3.3-0.9c-0.8-0.2-1.6-0.5-2.4-0.6c-4.6-1.2-9.3-2.6-14.2-2.6
	c-0.8,0-1.5,0-2.3,0.2c-4.5,0.5-6.7,3.3-6.8,9.1c-0.1,4.8-0.1,9.8,0,13.8c0,5,1,6.4,4.9,6.8l8.2,0.9c5.6,0.6,11.3,1.2,16.9,1.9
	C48.9,83,59,97.9,59.2,117.4v6c0,7.7,0.8,9,6.6,9h26.2c6.8,0,10.6-4.3,11.7-13.6c0.5-3.9,1-7.7,2-11.3
	C109.4,91.2,120.4,80.5,132.9,80.5z M96.5,115.1c-0.1,1.5-0.3,3.1-0.8,4.6c-0.6,1.2-1.6,2.3-2,2.3c-5.5,0.2-11,0.2-15.5,0.2H66.6v-6
	C66.4,92.9,53.3,73.7,36,71.5l-22.9-2.6c-0.3,0-0.7,0-1-0.2V58.4c2.9,0.2,5.6,0.5,8.4,0.9c17.5,4.6,35.2,9.6,52.3,14.4l11.4,3.1
	c1.2,0.3,2.1,0.5,2.8,0.5c3.1,0,4.7-2.5,6.1-6.4l2-5.4c1.8-5,3.7-10.1,5.5-15.2c0.5-1.4,1.4-2.3,2.5-2.6c3.2-1.1,6.6-1.7,10-1.7
	c5.3,0,10.9,1.4,17.3,4c2.2,0.9,4.4,2,6.6,3.1c2.4,1.1,4.8,2.3,7.2,3.4c4.1,1.7,6.1,5.1,6.4,10.5c0.1,2.9,0.3,5.9,0.6,9l0.1,1.1
	l-0.9-0.6c-6.3-4-12.4-6-18.3-6c-6.7,0-13.1,2.6-19.2,7.9C104,86.4,98.5,98.8,96.5,115.1z M89.4,58.8c-1,2.8-2.1,5.6-3.1,8.5
	L41,54.8l0,0c-0.1-0.9-0.1-1.7-0.1-2.5c0-0.6,0.1-1.1,0.2-1.4c0.2-0.3,0.6-0.3,0.9-0.3h0.1l7.8,0.9l39.1,4.3c0.5,0,0.8,0.2,1.4,0.3
	L89.4,58.8z"/>
<path class="st0" d="M209.1,128.7c-0.5-0.2-0.8-0.3-1.3-0.5c-0.3-0.2-0.7-0.2-1-0.3c-6.4-2.6-10.2-7.9-11.9-16.4
	c-1-5.7-0.5-11.6,2-18.4c1.3-3.3,2.9-6.4,4.6-9.3c1.3-2.5,2.6-5.6,0.8-9.3c-1-2-2.5-3.1-4.4-3.1c-0.7,0-1.5,0.2-2.4,0.5
	c-0.5,0.2-0.9,0.5-1.4,0.6c-0.2,0.2-5.4,2.6-7.8,3.9c-4.7,2.3-9.5,4.6-14.3,7l-3,1.5c-4.9,2.5-10,5-14.8,7.9h-0.1H154
	c-0.5,0.3-0.9,0.5-1.4,0.5c-0.7,0-1.3-0.3-1.8-0.9c-4.8-4.8-10.7-7.4-16.8-7.4c-3.6,0-7,0.9-10.2,2.6c-14.8,7.7-22.2,30.2-16.5,50.1
	c4.1,14.6,14.3,24.3,25.9,24.8c0.2,0,0.3,0,0.6,0c6.6,0,12.9-2.9,18.1-8.2c0.7,0.5,1.4,0.9,2.1,1.5c2,1.4,3.8,2.8,5.6,3.9
	c2.5,1.5,5.3,2.3,8.2,2.3l0,0c2.6,0,5.2-0.8,7.6-2c5.2-2.9,10.6-5.4,15.8-7.9c2.1-0.9,4.1-2,6.2-2.9c2.2-1.1,4.3-2.2,6.4-3.3
	c2-0.9,3.8-1.9,5.6-2.8c2.3-0.9,3.9-4,3.7-7.3C213,132.3,211.4,129.5,209.1,128.7z M190.5,141.4c-2.1,1.1-4.1,2-6.3,3.1
	c-4.1,2-8.4,4-12.7,6.2c-1.3,0.6-2.6,0.9-4,0.9c-1,0-2-0.2-3-0.6c-6.7-2.2-11.9-8.4-14.3-16.6c-2.5-8.7-1.8-18.8,2-26.8
	c1.5-3.4,3.9-6,6.7-7.4c10.5-5.3,21.2-10.5,31.4-15.5l1.4-0.6c-4.4,10.4-5.8,19.7-4.3,29.1c1.6,10.2,6.3,17.8,13.9,22.8
	c-1.5,0.8-7.7,3.9-9.4,4.6l0,0L190.5,141.4z M133.9,152.4c-5.8,0-11-2.9-15.1-8.2c-4.1-5.3-6.4-12.4-6.6-20.1
	c-0.1-7.6,2-14.9,5.9-20.5c0.2-0.3,0.3-0.6,0.6-0.8c4-5.3,9.3-8.1,15-8.1c5.1,0,9.9,2.3,12.7,6l-3.3,8.7c-3.6-3.1-7-4.6-10.2-4.6
	c-3.7,0-6.9,2-9.5,6c-4.8,7.1-4.9,17.8-0.2,25.1c2.8,4.2,6,6.4,9.8,6.4c3.1,0,6.6-1.5,10.1-4.5l3.5,8.5
	C143.5,150.1,138.9,152.4,133.9,152.4z M133.8,132.3h-0.1c-3.7-0.2-6.6-4.2-6.4-9c0.1-4.8,3-8.7,6.6-8.7h0.1c3.7,0.2,6.6,4.2,6.4,9
	C140.4,128.4,137.4,132.3,133.8,132.3z"/>
<path class="st0" d="M28.1,84.7h-0.2c-15.8,0-28.6,17.2-28.8,38.4c0,10.4,2.9,20.1,8.3,27.4C12.8,158,20,162,27.6,162h0.2
	c15.8,0,28.6-17.2,28.8-38.4C56.7,102.4,44,84.9,28.1,84.7z M6.6,123.3c0.1-15.7,9.7-28.5,21.3-28.5h0.2
	c11.7,0.2,21.2,13.2,21.2,28.8c-0.2,15.5-9.4,28.2-20.8,28.7h-0.7C15.9,152.3,6.5,139.1,6.6,123.3z"/>
<path class="st0" d="M41.8,123.8c0-5-1.4-9.8-4-13.3c-2.6-3.6-6.1-5.6-9.8-5.7h-0.3c-7.5,0-13.7,8.2-13.8,18.4v0.2
	c-0.1,10.4,6.1,18.9,13.8,19.1h0.1C35.5,142.4,41.7,134,41.8,123.8z M34.4,123.3c0,2.3-0.6,4.6-1.7,6.4c-1.2,1.7-2.8,2.6-4.5,2.8
	v1.5l-0.1-1.5h-0.2c-3.6,0-6.6-3.9-6.7-8.7c0-5,2.9-9,6.4-9.1l0.1-1.5l0,0v1.5C31.3,114.6,34.3,118.5,34.4,123.3z"/>
</svg>
