<?xml version="1.0" encoding="utf-8"?>
<!-- Generator: Adobe Illustrator 24.1.2, SVG Export Plug-In . SVG Version: 6.00 Build 0)  -->
<svg version="1.1" id="Layer_1" xmlns="http://www.w3.org/2000/svg" xmlns:xlink="http://www.w3.org/1999/xlink" x="0px" y="0px"
	 viewBox="0 0 138.9 138.1" style="enable-background:new 0 0 138.9 138.1;" xml:space="preserve">
<style type="text/css">
	.st0{fill:#0a252c;}
</style>
<path class="st0" d="M33.9,30.4c-17,23.5-16.2,47.3,3,63.9l16.9-15.2l-1.4-28.4l4.4,0.6l1,23.5l17-17l0.3-14.9l3.9,1.3l-0.6,9.6
	l13.6-10.7l1.6,1.6l-75.3,73.5l5.6,6l21.8-20c0,0,24.1,26.5,48.3,14.9c41-19.5,32.1-65.6,35.1-103.4C129.1,15.6,51,7,33.9,30.4z
	 M65.3,81.7l1.3-2.6l19.8,1.3l1.6,3.7L65.3,81.7z M95.6,67.8H77.9l2.6-3h15.2V67.8z"/>
</svg>
