<?xml version="1.0" encoding="utf-8"?>
<!-- Generator: Adobe Illustrator 24.1.2, SVG Export Plug-In . SVG Version: 6.00 Build 0)  -->
<svg version="1.1" id="Layer_1" xmlns="http://www.w3.org/2000/svg" xmlns:xlink="http://www.w3.org/1999/xlink" x="0px" y="0px"
	 viewBox="0 0 138.9 138.1" enable-background="new 0 0 138.9 138.1" xml:space="preserve">
<path fill="#FFFFFF" d="M45.9,42.1c-11.9,16.4-11.3,33,2.1,44.6l11.8-10.6l-1-19.8l3.1,0.4l0.7,16.4l11.9-11.9l0.2-10.4l2.7,0.9
	L77,58.4l9.5-7.5l1.1,1.1l-52.6,51.3l3.9,4.2l15.2-14c0,0,16.8,18.5,33.7,10.4c28.6-13.6,22.4-45.8,24.5-72.2
	C112.4,31.7,57.8,25.7,45.9,42.1z M67.8,77.9l0.9-1.8L82.5,77l1.1,2.6L67.8,77.9z M89,68.2H76.6l1.8-2.1H89V68.2z"/>
</svg>
