<svg id="logo" xmlns="http://www.w3.org/2000/svg" width="553" height="312" viewBox="0 0 553 312">
  <defs>
    <style>
      .cls-1 {
        fill: #fff;
        opacity: 0.7;
      }

      .cls-1, .cls-2 {
        fill-rule: evenodd;
      }

      .cls-2 {
        fill: #01252e;
        stroke: #f0f0f0;
        stroke-linejoin: round;
        stroke-width: 2px;
        opacity: 0.8;
      }
    </style>
  </defs>
  <path class="cls-1" d="M1,155c-24.752-56.22,523.567-71.58,552-7,0,0-104.6,152.988-260,163S19.265,196.486,1,155Z"/>
  <path id="ASP" class="cls-2" d="M170.084,185.989h45.772L158.795,6.215H106.519L49.335,185.989h36.2l11.658-41.6H158.3Zm-66.265-66.51,16.567-59.147,6.012-27h2.455l6.135,27,16.567,59.147H103.819Zm175.234,41.109a95.647,95.647,0,0,1-11.6-3.068q-5.953-1.962-12.332-4.786T241.748,146.6l-2.454,1.227-6.381,28.96a112.528,112.528,0,0,0,14.725,5.4,149.983,149.983,0,0,0,15.033,3.559q7.422,1.349,14.418,2.025t13.008,0.674a94.838,94.838,0,0,0,29.144-4.172,66.121,66.121,0,0,0,22.088-11.719,51.729,51.729,0,0,0,14.051-17.916,52.825,52.825,0,0,0,4.908-22.886,44.646,44.646,0,0,0-3.436-18.345,43.609,43.609,0,0,0-9.142-13.314,56.877,56.877,0,0,0-12.946-9.572q-7.242-3.926-14.787-7.24t-14.786-6.32a81.4,81.4,0,0,1-12.947-6.688,33.687,33.687,0,0,1-9.142-8.406,19.177,19.177,0,0,1-3.436-11.6q0-9.692,7.056-14.726t18.837-5.031A80.023,80.023,0,0,1,313.78,31a92.757,92.757,0,0,1,10,1.657q5.338,1.168,11.045,2.945A104.31,104.31,0,0,1,346.3,39.961l2.209-.982,6.258-28.837Q348.261,8.3,341.513,7.074t-13.13-1.963Q322,4.375,316.419,4.068t-9.756-.307a94.977,94.977,0,0,0-27.794,3.8,64.043,64.043,0,0,0-21.291,10.8,47.7,47.7,0,0,0-13.621,17,51.224,51.224,0,0,0-4.786,22.4,45.842,45.842,0,0,0,3.436,18.591,43.146,43.146,0,0,0,9.142,13.437,58.8,58.8,0,0,0,12.885,9.633,163.178,163.178,0,0,0,14.726,7.24q7.547,3.252,14.786,6.258a85.341,85.341,0,0,1,12.947,6.626,32.5,32.5,0,0,1,9.142,8.406,19.474,19.474,0,0,1,3.436,11.658,19.259,19.259,0,0,1-2.455,9.94,20.891,20.891,0,0,1-6.5,6.872,29.109,29.109,0,0,1-9.327,3.988,46.4,46.4,0,0,1-11.044,1.288A58.676,58.676,0,0,1,279.053,160.588ZM436.984,32.967h18.407a47.731,47.731,0,0,1,14.173,1.963,26.223,26.223,0,0,1,17.67,17.118,48.508,48.508,0,0,1,2.393,16.259,52,52,0,0,1-1.534,12.885,34.313,34.313,0,0,1-4.54,10.553,22.376,22.376,0,0,1-7.608,7.179,21.2,21.2,0,0,1-10.737,2.638q-1.228,0-2.7-.061a12.361,12.361,0,0,1-2.454-.307l-2.086,24.542q2.452,0.369,4.294.491t3.805,0.123a72.923,72.923,0,0,0,25.462-4.418,63.2,63.2,0,0,0,20.923-12.578,59.07,59.07,0,0,0,14.173-19.818,63.023,63.023,0,0,0,5.215-26.015,57.033,57.033,0,0,0-4.785-23.806,48.418,48.418,0,0,0-14.174-18.039A66.306,66.306,0,0,0,489.75,10.2a113.437,113.437,0,0,0-31.537-3.988H393.666V185.989h43.318V32.967Z"/>
</svg>
